<svg width="74" height="106" viewBox="0 0 74 106" fill="none" xmlns="http://www.w3.org/2000/svg">
<path d="M32.2243 106V95.853C21.9969 95.4568 14.0934 92.718 8.50565 87.6471C2.91268 82.5736 0.0818613 75.5615 0 66.6082H21.96C22.2003 71.1429 23.0928 74.4073 24.6455 76.3961C26.1983 78.3848 28.5828 79.4386 31.8071 79.5601L31.8678 59.8629C21.0463 57.4753 13.2272 54.203 8.41587 50.0459C3.60454 45.8889 1.19623 40.3664 1.19623 33.4837C1.19623 25.8457 4.07194 19.6867 9.82072 15.0119C15.5695 10.3372 23.3146 7.89949 33.0641 7.70141V0H42.6101V7.58256C51.9212 7.82026 59.1805 10.2184 64.3932 14.7742C69.6033 19.3301 72.3707 25.6872 72.6876 33.8429H51.8024C51.6017 30.3408 50.7171 27.6733 49.1459 25.843C47.572 24.0128 45.3168 23.0593 42.3725 22.9775V41.061C53.87 43.8051 62.0139 47.3177 66.8068 51.5963C71.6023 55.8748 74 61.6535 74 68.935C74 77.3706 71.2827 83.8254 65.8561 88.3021C60.4242 92.7787 52.2592 95.3353 41.3585 95.9718V105.997H32.2296L32.2243 106ZM33.6556 38.9772V22.7424H33.1802C29.7183 22.7424 27.1225 23.3974 25.3902 24.71C23.6606 26.0226 22.7971 28.014 22.7971 30.6789C22.7971 32.7099 23.6025 34.3473 25.2133 35.6018C26.8241 36.8537 29.6391 37.9788 33.6556 38.9745V38.9772ZM40.759 79.5627C44.5775 79.5627 47.4716 78.884 49.439 77.5317C51.4089 76.1795 52.3913 74.1723 52.3913 71.5048C52.3913 69.1965 51.5594 67.3556 49.8852 65.9849C48.2137 64.6142 45.1716 63.3095 40.7564 62.0735V79.5627H40.759Z" fill="#FF9734"/>
</svg>
