<svg width="106" height="106" viewBox="0 0 106 106" fill="none" xmlns="http://www.w3.org/2000/svg">
<g clip-path="url(#clip0_453_1516)">
<path d="M105.316 61.5007C110.006 32.6078 90.3861 5.38346 61.4931 0.693474C32.6002 -3.99651 5.37589 15.6238 0.685904 44.5168C-4.00408 73.4097 15.6163 100.634 44.5092 105.324C73.4021 110.014 100.626 90.3936 105.316 61.5007Z" fill="#FF9734"/>
<path d="M81.4989 61.8711C77.7177 74.0179 66.3921 82.8347 53 82.8347C39.6079 82.8347 28.2823 74.0179 24.5011 61.8711" stroke="white" stroke-width="4.25" stroke-linecap="round" stroke-linejoin="round"/>
<path d="M26.7662 60.5723L21.3336 63.1713" stroke="white" stroke-width="4.25" stroke-linecap="round" stroke-linejoin="round"/>
<path d="M79.2338 60.5723L84.6664 63.1713" stroke="white" stroke-width="4.25" stroke-linecap="round" stroke-linejoin="round"/>
<path d="M23.3821 40.2402C24.5192 42.2075 26.6489 43.5251 29.0765 43.5251C31.3506 43.5251 33.354 42.37 34.5362 40.6283" stroke="white" stroke-width="5" stroke-linecap="round" stroke-linejoin="round"/>
<path d="M82.6179 40.2402C81.4808 42.2075 79.3511 43.5251 76.9235 43.5251C74.6494 43.5251 72.646 42.37 71.4638 40.6283" stroke="white" stroke-width="5" stroke-linecap="round" stroke-linejoin="round"/>
</g>
<defs>
<clipPath id="clip0_453_1516">
<rect width="106" height="106" fill="white"/>
</clipPath>
</defs>
</svg>
