<svg width="75" height="46" viewBox="0 0 75 46" fill="none" xmlns="http://www.w3.org/2000/svg">
<g clip-path="url(#clip0_451_1351)">
<path d="M0.712947 43.2331C0.477734 42.1771 0.293973 41.0992 0.172691 40.0103L0.0918367 39.1918L0.0550846 38.3697C0.0494683 38.2021 0.0411056 38.0339 0.0327244 37.8654C0.0136832 37.4824 -0.00545285 37.0975 0.00730689 36.7144C-0.02577 34.4964 0.257221 32.2712 0.701921 30.0642C1.60602 25.6428 3.4473 21.364 5.99055 17.5018C6.0888 17.3591 6.18639 17.2154 6.28412 17.0715C6.51172 16.7364 6.74006 16.4003 6.97918 16.073L8.03029 14.6845C8.77268 13.7893 9.53345 12.9087 10.3493 12.0719C11.9591 10.3765 13.7526 8.85643 15.6453 7.45695C17.5528 6.0794 19.6072 4.89551 21.7315 3.85047C23.8704 2.83832 26.0976 1.9979 28.3909 1.37307C30.688 0.773819 33.0291 0.338995 35.3922 0.119756C37.7591 -0.0556356 40.1296 -0.0519816 42.4817 0.159949C42.8654 0.193326 43.2475 0.246924 43.629 0.300446C43.8323 0.328956 44.0354 0.357444 44.2385 0.382842C44.4373 0.413929 44.6362 0.439937 44.8347 0.465908C45.2197 0.516254 45.6035 0.566458 45.9842 0.653237L46.0808 0.672809C47.2026 0.900034 48.3235 1.12708 49.4131 1.46808C51.6844 2.05637 53.8491 2.97352 55.9477 3.95644C60.1043 6.02825 63.8347 8.83451 66.8814 12.156C68.3552 13.8733 69.7554 15.6163 70.8396 17.5602C70.9335 17.7279 71.0308 17.8917 71.1279 18.0551C71.3122 18.365 71.4954 18.6733 71.6518 19.0035L72.3795 20.4798C72.5903 20.9118 72.7639 21.3665 72.9356 21.8165C72.9585 21.8765 72.9814 21.9364 73.0043 21.9962C73.2028 22.5041 73.3865 23.0156 73.5593 23.5235L73.0962 23.7939C70.9094 20.2349 68.1604 17.0377 64.9887 14.3338C61.7949 11.659 58.1932 9.46299 54.3269 7.89909C50.4496 6.37538 46.3333 5.43265 42.173 5.19148C40.0928 5.09648 38.0053 5.12206 35.9325 5.33764C33.8633 5.56784 31.8126 5.96247 29.8096 6.51057C25.7852 7.57754 21.9667 9.35703 18.4936 11.6444C15.0499 13.972 11.9407 16.8148 9.39379 20.107C6.8432 23.3883 4.80713 27.0752 3.4473 31.0032C2.02867 34.913 1.32671 39.0676 1.24953 43.2331H0.712947Z" fill="white"/>
<path d="M0.712947 43.2331C0.477734 42.1771 0.293973 41.0992 0.172691 40.0103L0.0918367 39.1918L0.0550846 38.3697C0.0494683 38.2021 0.0411056 38.0339 0.0327244 37.8654C0.0136832 37.4824 -0.00545285 37.0975 0.00730689 36.7144C-0.02577 34.4964 0.257221 32.2712 0.701921 30.0642C1.60602 25.6428 3.4473 21.364 5.99055 17.5018C6.0888 17.3591 6.18639 17.2154 6.28412 17.0715C6.51172 16.7364 6.74006 16.4003 6.97918 16.073L8.03029 14.6845C8.77268 13.7893 9.53345 12.9087 10.3493 12.0719C11.9591 10.3765 13.7526 8.85643 15.6453 7.45695C17.5528 6.0794 19.6072 4.89551 21.7315 3.85047C23.8704 2.83832 26.0976 1.9979 28.3909 1.37307C30.688 0.773819 33.0291 0.338995 35.3922 0.119756C37.7591 -0.0556356 40.1296 -0.0519816 42.4817 0.159949C42.8654 0.193326 43.2475 0.246924 43.629 0.300446C43.8323 0.328956 44.0354 0.357444 44.2385 0.382842C44.4373 0.413929 44.6362 0.439937 44.8347 0.465908C45.2197 0.516254 45.6035 0.566458 45.9842 0.653237L46.0808 0.672809C47.2026 0.900034 48.3235 1.12708 49.4131 1.46808C51.6844 2.05637 53.8491 2.97352 55.9477 3.95644C60.1043 6.02825 63.8347 8.83451 66.8814 12.156C68.3552 13.8733 69.7554 15.6163 70.8396 17.5602C70.9335 17.7279 71.0308 17.8917 71.1279 18.0551C71.3122 18.365 71.4954 18.6733 71.6518 19.0035L72.3795 20.4798C72.5903 20.9118 72.7639 21.3665 72.9356 21.8165C72.9585 21.8765 72.9814 21.9364 73.0043 21.9962C73.2028 22.5041 73.3865 23.0156 73.5593 23.5235L73.0962 23.7939C70.9094 20.2349 68.1604 17.0377 64.9887 14.3338C61.7949 11.659 58.1932 9.46299 54.3269 7.89909C50.4496 6.37538 46.3333 5.43265 42.173 5.19148C40.0928 5.09648 38.0053 5.12206 35.9325 5.33764C33.8633 5.56784 31.8126 5.96247 29.8096 6.51057C25.7852 7.57754 21.9667 9.35703 18.4936 11.6444C15.0499 13.972 11.9407 16.8148 9.39379 20.107C6.8432 23.3883 4.80713 27.0752 3.4473 31.0032C2.02867 34.913 1.32671 39.0676 1.24953 43.2331H0.712947Z" stroke="black"/>
<path d="M35.282 40.0396C36.866 39.3526 38.7073 40.0724 39.3982 41.6473C40.0892 43.2222 39.3652 45.0528 37.7811 45.7398C36.1971 46.4267 34.3558 45.7069 33.6649 44.132C32.974 42.5571 33.698 40.7265 35.2783 40.0396H35.282Z" fill="white"/>
<path d="M37.3401 44.7277L35.7267 41.0518L74.8897 26.1764C74.9963 26.1362 75.0441 26.2495 74.9448 26.3007L37.3401 44.7277Z" fill="white"/>
</g>
<defs>
<clipPath id="clip0_451_1351">
<rect width="75" height="46" fill="white"/>
</clipPath>
</defs>
</svg>
