<svg width="696" height="652" viewBox="0 0 696 652" fill="none" xmlns="http://www.w3.org/2000/svg">
<circle cx="80" cy="80" r="80" fill="#FF9734"/>
<path d="M47.8102 101L54.1102 87H56.6702L62.9902 101H60.2702L54.8502 88.38H55.8902L50.4902 101H47.8102ZM50.7102 97.76L51.4102 95.72H58.9702L59.6702 97.76H50.7102ZM68.5553 101.14C67.6486 101.14 66.8486 100.973 66.1553 100.64C65.462 100.293 64.922 99.7733 64.5353 99.08C64.1486 98.3733 63.9553 97.4867 63.9553 96.42V90.32H66.4553V96.08C66.4553 97.04 66.6686 97.76 67.0953 98.24C67.5353 98.7067 68.1553 98.94 68.9553 98.94C69.542 98.94 70.0486 98.82 70.4753 98.58C70.9153 98.34 71.2553 97.98 71.4953 97.5C71.7486 97.02 71.8753 96.4267 71.8753 95.72V90.32H74.3753V101H71.9953V98.12L72.4153 99C72.0553 99.6933 71.5286 100.227 70.8353 100.6C70.142 100.96 69.382 101.14 68.5553 101.14ZM81.8686 101.14C80.8419 101.14 79.9153 100.913 79.0886 100.46C78.2753 99.9933 77.6353 99.3533 77.1686 98.54C76.7019 97.7267 76.4686 96.7667 76.4686 95.66C76.4686 94.5533 76.7019 93.5933 77.1686 92.78C77.6353 91.9667 78.2753 91.3333 79.0886 90.88C79.9153 90.4267 80.8419 90.2 81.8686 90.2C82.7619 90.2 83.5619 90.4 84.2686 90.8C84.9753 91.1867 85.5353 91.78 85.9486 92.58C86.3619 93.38 86.5686 94.4067 86.5686 95.66C86.5686 96.9 86.3686 97.9267 85.9686 98.74C85.5686 99.54 85.0153 100.14 84.3086 100.54C83.6019 100.94 82.7886 101.14 81.8686 101.14ZM82.1686 99C82.7686 99 83.3019 98.8667 83.7686 98.6C84.2486 98.3333 84.6286 97.9467 84.9086 97.44C85.2019 96.9333 85.3486 96.34 85.3486 95.66C85.3486 94.9667 85.2019 94.3733 84.9086 93.88C84.6286 93.3733 84.2486 92.9867 83.7686 92.72C83.3019 92.4533 82.7686 92.32 82.1686 92.32C81.5686 92.32 81.0286 92.4533 80.5486 92.72C80.0819 92.9867 79.7019 93.3733 79.4086 93.88C79.1286 94.3733 78.9886 94.9667 78.9886 95.66C78.9886 96.34 79.1286 96.9333 79.4086 97.44C79.7019 97.9467 80.0819 98.3333 80.5486 98.6C81.0286 98.8667 81.5686 99 82.1686 99ZM85.4086 101V98.48L85.5086 95.64L85.3086 92.8V86.16H87.7886V101H85.4086ZM90.7791 101V90.32H93.2791V101H90.7791ZM92.0391 88.56C91.5724 88.56 91.1857 88.4133 90.8791 88.12C90.5857 87.8267 90.4391 87.4733 90.4391 87.06C90.4391 86.6333 90.5857 86.28 90.8791 86C91.1857 85.7067 91.5724 85.56 92.0391 85.56C92.5057 85.56 92.8857 85.7 93.1791 85.98C93.4857 86.2467 93.6391 86.5867 93.6391 87C93.6391 87.44 93.4924 87.8133 93.1991 88.12C92.9057 88.4133 92.5191 88.56 92.0391 88.56ZM100.28 101.14C99.107 101.14 98.2003 100.84 97.5603 100.24C96.9203 99.6267 96.6003 98.7267 96.6003 97.54V87.96H99.1003V97.48C99.1003 97.9867 99.227 98.38 99.4803 98.66C99.747 98.94 100.114 99.08 100.58 99.08C101.14 99.08 101.607 98.9333 101.98 98.64L102.68 100.42C102.387 100.66 102.027 100.84 101.6 100.96C101.174 101.08 100.734 101.14 100.28 101.14ZM94.8403 92.4V90.4H101.96V92.4H94.8403ZM107.737 101.14C106.844 101.14 105.984 101.027 105.157 100.8C104.344 100.56 103.697 100.273 103.217 99.94L104.177 98.04C104.657 98.3467 105.23 98.6 105.897 98.8C106.564 99 107.23 99.1 107.897 99.1C108.684 99.1 109.25 98.9933 109.597 98.78C109.957 98.5667 110.137 98.28 110.137 97.92C110.137 97.6267 110.017 97.4067 109.777 97.26C109.537 97.1 109.224 96.98 108.837 96.9C108.45 96.82 108.017 96.7467 107.537 96.68C107.07 96.6133 106.597 96.5267 106.117 96.42C105.65 96.3 105.224 96.1333 104.837 95.92C104.45 95.6933 104.137 95.3933 103.897 95.02C103.657 94.6467 103.537 94.1533 103.537 93.54C103.537 92.86 103.73 92.2733 104.117 91.78C104.504 91.2733 105.044 90.8867 105.737 90.62C106.444 90.34 107.277 90.2 108.237 90.2C108.957 90.2 109.684 90.28 110.417 90.44C111.15 90.6 111.757 90.8267 112.237 91.12L111.277 93.02C110.77 92.7133 110.257 92.5067 109.737 92.4C109.23 92.28 108.724 92.22 108.217 92.22C107.457 92.22 106.89 92.3333 106.517 92.56C106.157 92.7867 105.977 93.0733 105.977 93.42C105.977 93.74 106.097 93.98 106.337 94.14C106.577 94.3 106.89 94.4267 107.277 94.52C107.664 94.6133 108.09 94.6933 108.557 94.76C109.037 94.8133 109.51 94.9 109.977 95.02C110.444 95.14 110.87 95.3067 111.257 95.52C111.657 95.72 111.977 96.0067 112.217 96.38C112.457 96.7533 112.577 97.24 112.577 97.84C112.577 98.5067 112.377 99.0867 111.977 99.58C111.59 100.073 111.037 100.46 110.317 100.74C109.597 101.007 108.737 101.14 107.737 101.14Z" fill="white"/>
<path d="M62.0195 75H99.9909C101.488 75 102.462 73.4247 101.793 72.0847C101.793 72.0847 101.793 72.0846 101.793 72.0845L82.8071 34.1135C82.0646 32.6289 79.946 32.6288 79.2034 34.1133L62.0195 75ZM62.0195 75C60.5225 75 59.5482 73.4244 60.2177 72.0847C60.2177 72.0847 60.2177 72.0846 60.2178 72.0845L79.2033 34.1135L62.0195 75Z" fill="#FF9734" stroke="white" stroke-width="4"/>
<path d="M81.0054 34.3675C81.188 34.3675 81.4366 34.4294 81.5852 34.7257L100.571 72.6971C100.678 72.9116 100.669 73.1236 100.542 73.3277C100.416 73.5319 100.23 73.6351 99.9911 73.6351H62.0196C61.7798 73.6351 61.5947 73.5319 61.4685 73.3277C61.3422 73.1236 61.3327 72.9116 61.4399 72.6971L80.4256 34.7257C80.5733 34.4294 80.8227 34.3675 81.0054 34.3675ZM81.0054 33.752C80.7703 33.752 80.1905 33.8203 79.8752 34.4509L60.8895 72.4215C60.6155 72.9696 60.8061 73.427 60.9451 73.651C61.0833 73.875 61.4065 74.2498 62.0196 74.2498H99.9911C100.604 74.2498 100.927 73.8742 101.066 73.651C101.205 73.4278 101.396 72.9696 101.122 72.4215L82.1355 34.4501C81.8202 33.8195 81.2405 33.752 81.0054 33.752Z" fill="white"/>
<path d="M82.2364 64.4571H79.7751L78.0374 44.7129H83.9733L82.2364 64.4571Z" fill="white"/>
<path d="M80.9998 70.4279C79.8455 70.4279 78.9089 69.5124 78.9089 68.3841V68.2891C78.9089 67.1608 79.8447 66.2461 80.9998 66.2461C82.1542 66.2461 83.0908 67.1608 83.0908 68.2891V68.3841C83.0908 69.5124 82.155 70.4279 80.9998 70.4279Z" fill="white"/>
<circle cx="616" cy="81" r="80" fill="#FF9734"/>
<path d="M556.111 102V88H558.711V102H556.111ZM565.258 102.14C564.365 102.14 563.505 102.027 562.678 101.8C561.865 101.56 561.218 101.273 560.738 100.94L561.698 99.04C562.178 99.3467 562.751 99.6 563.418 99.8C564.085 100 564.751 100.1 565.418 100.1C566.205 100.1 566.771 99.9933 567.118 99.78C567.478 99.5667 567.658 99.28 567.658 98.92C567.658 98.6267 567.538 98.4067 567.298 98.26C567.058 98.1 566.745 97.98 566.358 97.9C565.971 97.82 565.538 97.7467 565.058 97.68C564.591 97.6133 564.118 97.5267 563.638 97.42C563.171 97.3 562.745 97.1333 562.358 96.92C561.971 96.6933 561.658 96.3933 561.418 96.02C561.178 95.6467 561.058 95.1533 561.058 94.54C561.058 93.86 561.251 93.2733 561.638 92.78C562.025 92.2733 562.565 91.8867 563.258 91.62C563.965 91.34 564.798 91.2 565.758 91.2C566.478 91.2 567.205 91.28 567.938 91.44C568.671 91.6 569.278 91.8267 569.758 92.12L568.798 94.02C568.291 93.7133 567.778 93.5067 567.258 93.4C566.751 93.28 566.245 93.22 565.738 93.22C564.978 93.22 564.411 93.3333 564.038 93.56C563.678 93.7867 563.498 94.0733 563.498 94.42C563.498 94.74 563.618 94.98 563.858 95.14C564.098 95.3 564.411 95.4267 564.798 95.52C565.185 95.6133 565.611 95.6933 566.078 95.76C566.558 95.8133 567.031 95.9 567.498 96.02C567.965 96.14 568.391 96.3067 568.778 96.52C569.178 96.72 569.498 97.0067 569.738 97.38C569.978 97.7533 570.098 98.24 570.098 98.84C570.098 99.5067 569.898 100.087 569.498 100.58C569.111 101.073 568.558 101.46 567.838 101.74C567.118 102.007 566.258 102.14 565.258 102.14ZM575.251 102.14C574.358 102.14 573.498 102.027 572.671 101.8C571.858 101.56 571.211 101.273 570.731 100.94L571.691 99.04C572.171 99.3467 572.744 99.6 573.411 99.8C574.078 100 574.744 100.1 575.411 100.1C576.198 100.1 576.764 99.9933 577.111 99.78C577.471 99.5667 577.651 99.28 577.651 98.92C577.651 98.6267 577.531 98.4067 577.291 98.26C577.051 98.1 576.738 97.98 576.351 97.9C575.964 97.82 575.531 97.7467 575.051 97.68C574.584 97.6133 574.111 97.5267 573.631 97.42C573.164 97.3 572.738 97.1333 572.351 96.92C571.964 96.6933 571.651 96.3933 571.411 96.02C571.171 95.6467 571.051 95.1533 571.051 94.54C571.051 93.86 571.244 93.2733 571.631 92.78C572.018 92.2733 572.558 91.8867 573.251 91.62C573.958 91.34 574.791 91.2 575.751 91.2C576.471 91.2 577.198 91.28 577.931 91.44C578.664 91.6 579.271 91.8267 579.751 92.12L578.791 94.02C578.284 93.7133 577.771 93.5067 577.251 93.4C576.744 93.28 576.238 93.22 575.731 93.22C574.971 93.22 574.404 93.3333 574.031 93.56C573.671 93.7867 573.491 94.0733 573.491 94.42C573.491 94.74 573.611 94.98 573.851 95.14C574.091 95.3 574.404 95.4267 574.791 95.52C575.178 95.6133 575.604 95.6933 576.071 95.76C576.551 95.8133 577.024 95.9 577.491 96.02C577.958 96.14 578.384 96.3067 578.771 96.52C579.171 96.72 579.491 97.0067 579.731 97.38C579.971 97.7533 580.091 98.24 580.091 98.84C580.091 99.5067 579.891 100.087 579.491 100.58C579.104 101.073 578.551 101.46 577.831 101.74C577.111 102.007 576.251 102.14 575.251 102.14ZM586.464 102.14C585.557 102.14 584.757 101.973 584.064 101.64C583.371 101.293 582.831 100.773 582.444 100.08C582.057 99.3733 581.864 98.4867 581.864 97.42V91.32H584.364V97.08C584.364 98.04 584.577 98.76 585.004 99.24C585.444 99.7067 586.064 99.94 586.864 99.94C587.451 99.94 587.957 99.82 588.384 99.58C588.824 99.34 589.164 98.98 589.404 98.5C589.657 98.02 589.784 97.4267 589.784 96.72V91.32H592.284V102H589.904V99.12L590.324 100C589.964 100.693 589.437 101.227 588.744 101.6C588.051 101.96 587.291 102.14 586.464 102.14ZM600.277 102.14C599.091 102.14 598.051 101.907 597.157 101.44C596.277 100.96 595.591 100.307 595.097 99.48C594.617 98.6533 594.377 97.7133 594.377 96.66C594.377 95.5933 594.611 94.6533 595.077 93.84C595.557 93.0133 596.211 92.3667 597.037 91.9C597.877 91.4333 598.831 91.2 599.897 91.2C600.937 91.2 601.864 91.4267 602.677 91.88C603.491 92.3333 604.131 92.9733 604.597 93.8C605.064 94.6267 605.297 95.6 605.297 96.72C605.297 96.8267 605.291 96.9467 605.277 97.08C605.277 97.2133 605.271 97.34 605.257 97.46H596.357V95.8H603.937L602.957 96.32C602.971 95.7067 602.844 95.1667 602.577 94.7C602.311 94.2333 601.944 93.8667 601.477 93.6C601.024 93.3333 600.497 93.2 599.897 93.2C599.284 93.2 598.744 93.3333 598.277 93.6C597.824 93.8667 597.464 94.24 597.197 94.72C596.944 95.1867 596.817 95.74 596.817 96.38V96.78C596.817 97.42 596.964 97.9867 597.257 98.48C597.551 98.9733 597.964 99.3533 598.497 99.62C599.031 99.8867 599.644 100.02 600.337 100.02C600.937 100.02 601.477 99.9267 601.957 99.74C602.437 99.5533 602.864 99.26 603.237 98.86L604.577 100.4C604.097 100.96 603.491 101.393 602.757 101.7C602.037 101.993 601.211 102.14 600.277 102.14ZM610.699 102.14C609.805 102.14 608.945 102.027 608.119 101.8C607.305 101.56 606.659 101.273 606.179 100.94L607.139 99.04C607.619 99.3467 608.192 99.6 608.859 99.8C609.525 100 610.192 100.1 610.859 100.1C611.645 100.1 612.212 99.9933 612.559 99.78C612.919 99.5667 613.099 99.28 613.099 98.92C613.099 98.6267 612.979 98.4067 612.739 98.26C612.499 98.1 612.185 97.98 611.799 97.9C611.412 97.82 610.979 97.7467 610.499 97.68C610.032 97.6133 609.559 97.5267 609.079 97.42C608.612 97.3 608.185 97.1333 607.799 96.92C607.412 96.6933 607.099 96.3933 606.859 96.02C606.619 95.6467 606.499 95.1533 606.499 94.54C606.499 93.86 606.692 93.2733 607.079 92.78C607.465 92.2733 608.005 91.8867 608.699 91.62C609.405 91.34 610.239 91.2 611.199 91.2C611.919 91.2 612.645 91.28 613.379 91.44C614.112 91.6 614.719 91.8267 615.199 92.12L614.239 94.02C613.732 93.7133 613.219 93.5067 612.699 93.4C612.192 93.28 611.685 93.22 611.179 93.22C610.419 93.22 609.852 93.3333 609.479 93.56C609.119 93.7867 608.939 94.0733 608.939 94.42C608.939 94.74 609.059 94.98 609.299 95.14C609.539 95.3 609.852 95.4267 610.239 95.52C610.625 95.6133 611.052 95.6933 611.519 95.76C611.999 95.8133 612.472 95.9 612.939 96.02C613.405 96.14 613.832 96.3067 614.219 96.52C614.619 96.72 614.939 97.0067 615.179 97.38C615.419 97.7533 615.539 98.24 615.539 98.84C615.539 99.5067 615.339 100.087 614.939 100.58C614.552 101.073 613.999 101.46 613.279 101.74C612.559 102.007 611.699 102.14 610.699 102.14ZM616.732 105.02L617.892 100.6L618.232 102.08C617.765 102.08 617.372 101.94 617.052 101.66C616.745 101.367 616.592 100.973 616.592 100.48C616.592 99.9733 616.745 99.5733 617.052 99.28C617.372 98.9733 617.758 98.82 618.212 98.82C618.678 98.82 619.065 98.9733 619.372 99.28C619.678 99.5867 619.832 99.9867 619.832 100.48C619.832 100.613 619.818 100.76 619.792 100.92C619.765 101.067 619.718 101.24 619.652 101.44C619.598 101.64 619.505 101.893 619.372 102.2L618.352 105.02H616.732ZM627.442 102V88H630.042V102H627.442ZM637.808 102.14C636.782 102.14 635.855 101.913 635.028 101.46C634.215 100.993 633.575 100.353 633.108 99.54C632.642 98.7267 632.408 97.7667 632.408 96.66C632.408 95.5533 632.642 94.5933 633.108 93.78C633.575 92.9667 634.215 92.3333 635.028 91.88C635.855 91.4267 636.782 91.2 637.808 91.2C638.702 91.2 639.502 91.4 640.208 91.8C640.915 92.1867 641.475 92.78 641.888 93.58C642.302 94.38 642.508 95.4067 642.508 96.66C642.508 97.9 642.308 98.9267 641.908 99.74C641.508 100.54 640.955 101.14 640.248 101.54C639.542 101.94 638.728 102.14 637.808 102.14ZM638.108 100C638.708 100 639.242 99.8667 639.708 99.6C640.188 99.3333 640.568 98.9467 640.848 98.44C641.142 97.9333 641.288 97.34 641.288 96.66C641.288 95.9667 641.142 95.3733 640.848 94.88C640.568 94.3733 640.188 93.9867 639.708 93.72C639.242 93.4533 638.708 93.32 638.108 93.32C637.508 93.32 636.968 93.4533 636.488 93.72C636.022 93.9867 635.642 94.3733 635.348 94.88C635.068 95.3733 634.928 95.9667 634.928 96.66C634.928 97.34 635.068 97.9333 635.348 98.44C635.642 98.9467 636.022 99.3333 636.488 99.6C636.968 99.8667 637.508 100 638.108 100ZM641.348 102V99.48L641.448 96.64L641.248 93.8V87.16H643.728V102H641.348ZM651.739 102.14C650.552 102.14 649.512 101.907 648.619 101.44C647.739 100.96 647.052 100.307 646.559 99.48C646.079 98.6533 645.839 97.7133 645.839 96.66C645.839 95.5933 646.072 94.6533 646.539 93.84C647.019 93.0133 647.672 92.3667 648.499 91.9C649.339 91.4333 650.292 91.2 651.359 91.2C652.399 91.2 653.326 91.4267 654.139 91.88C654.952 92.3333 655.592 92.9733 656.059 93.8C656.526 94.6267 656.759 95.6 656.759 96.72C656.759 96.8267 656.752 96.9467 656.739 97.08C656.739 97.2133 656.732 97.34 656.719 97.46H647.819V95.8H655.399L654.419 96.32C654.432 95.7067 654.306 95.1667 654.039 94.7C653.772 94.2333 653.406 93.8667 652.939 93.6C652.486 93.3333 651.959 93.2 651.359 93.2C650.746 93.2 650.206 93.3333 649.739 93.6C649.286 93.8667 648.926 94.24 648.659 94.72C648.406 95.1867 648.279 95.74 648.279 96.38V96.78C648.279 97.42 648.426 97.9867 648.719 98.48C649.012 98.9733 649.426 99.3533 649.959 99.62C650.492 99.8867 651.106 100.02 651.799 100.02C652.399 100.02 652.939 99.9267 653.419 99.74C653.899 99.5533 654.326 99.26 654.699 98.86L656.039 100.4C655.559 100.96 654.952 101.393 654.219 101.7C653.499 101.993 652.672 102.14 651.739 102.14ZM665.147 102V99.84L665.007 99.38V95.6C665.007 94.8667 664.787 94.3 664.347 93.9C663.907 93.4867 663.241 93.28 662.347 93.28C661.747 93.28 661.154 93.3733 660.567 93.56C659.994 93.7467 659.507 94.0067 659.107 94.34L658.127 92.52C658.701 92.08 659.381 91.7533 660.167 91.54C660.967 91.3133 661.794 91.2 662.647 91.2C664.194 91.2 665.387 91.5733 666.227 92.32C667.081 93.0533 667.507 94.1933 667.507 95.74V102H665.147ZM661.787 102.14C660.987 102.14 660.287 102.007 659.687 101.74C659.087 101.46 658.621 101.08 658.287 100.6C657.967 100.107 657.807 99.5533 657.807 98.94C657.807 98.34 657.947 97.8 658.227 97.32C658.521 96.84 658.994 96.46 659.647 96.18C660.301 95.9 661.167 95.76 662.247 95.76H665.347V97.42H662.427C661.574 97.42 661.001 97.56 660.707 97.84C660.414 98.1067 660.267 98.44 660.267 98.84C660.267 99.2933 660.447 99.6533 660.807 99.92C661.167 100.187 661.667 100.32 662.307 100.32C662.921 100.32 663.467 100.18 663.947 99.9C664.441 99.62 664.794 99.2067 665.007 98.66L665.427 100.16C665.187 100.787 664.754 101.273 664.127 101.62C663.514 101.967 662.734 102.14 661.787 102.14ZM673.716 102.14C672.822 102.14 671.962 102.027 671.136 101.8C670.322 101.56 669.676 101.273 669.196 100.94L670.156 99.04C670.636 99.3467 671.209 99.6 671.876 99.8C672.542 100 673.209 100.1 673.876 100.1C674.662 100.1 675.229 99.9933 675.576 99.78C675.936 99.5667 676.116 99.28 676.116 98.92C676.116 98.6267 675.996 98.4067 675.756 98.26C675.516 98.1 675.202 97.98 674.816 97.9C674.429 97.82 673.996 97.7467 673.516 97.68C673.049 97.6133 672.576 97.5267 672.096 97.42C671.629 97.3 671.202 97.1333 670.816 96.92C670.429 96.6933 670.116 96.3933 669.876 96.02C669.636 95.6467 669.516 95.1533 669.516 94.54C669.516 93.86 669.709 93.2733 670.096 92.78C670.482 92.2733 671.022 91.8867 671.716 91.62C672.422 91.34 673.256 91.2 674.216 91.2C674.936 91.2 675.662 91.28 676.396 91.44C677.129 91.6 677.736 91.8267 678.216 92.12L677.256 94.02C676.749 93.7133 676.236 93.5067 675.716 93.4C675.209 93.28 674.702 93.22 674.196 93.22C673.436 93.22 672.869 93.3333 672.496 93.56C672.136 93.7867 671.956 94.0733 671.956 94.42C671.956 94.74 672.076 94.98 672.316 95.14C672.556 95.3 672.869 95.4267 673.256 95.52C673.642 95.6133 674.069 95.6933 674.536 95.76C675.016 95.8133 675.489 95.9 675.956 96.02C676.422 96.14 676.849 96.3067 677.236 96.52C677.636 96.72 677.956 97.0067 678.196 97.38C678.436 97.7533 678.556 98.24 678.556 98.84C678.556 99.5067 678.356 100.087 677.956 100.58C677.569 101.073 677.016 101.46 676.296 101.74C675.576 102.007 674.716 102.14 673.716 102.14ZM566.078 129.2C565.105 129.2 564.232 129.04 563.458 128.72C562.685 128.4 562.078 127.96 561.638 127.4C561.198 126.84 560.978 126.193 560.978 125.46C560.978 124.793 561.125 124.193 561.418 123.66C561.712 123.127 562.178 122.62 562.818 122.14C563.458 121.647 564.278 121.153 565.278 120.66C566.065 120.273 566.678 119.933 567.118 119.64C567.572 119.347 567.885 119.067 568.058 118.8C568.245 118.533 568.338 118.253 568.338 117.96C568.338 117.56 568.198 117.24 567.918 117C567.638 116.747 567.238 116.62 566.718 116.62C566.158 116.62 565.718 116.76 565.398 117.04C565.092 117.307 564.938 117.66 564.938 118.1C564.938 118.327 564.978 118.547 565.058 118.76C565.152 118.973 565.312 119.213 565.538 119.48C565.765 119.747 566.092 120.087 566.518 120.5L573.918 127.6L572.538 129.22L564.538 121.54C564.085 121.1 563.718 120.693 563.438 120.32C563.158 119.947 562.958 119.587 562.838 119.24C562.718 118.88 562.658 118.513 562.658 118.14C562.658 117.487 562.825 116.913 563.158 116.42C563.492 115.913 563.965 115.527 564.578 115.26C565.192 114.98 565.905 114.84 566.718 114.84C567.478 114.84 568.132 114.967 568.678 115.22C569.238 115.46 569.672 115.813 569.978 116.28C570.298 116.733 570.458 117.28 570.458 117.92C570.458 118.48 570.318 119 570.038 119.48C569.758 119.947 569.318 120.393 568.718 120.82C568.132 121.247 567.345 121.693 566.358 122.16C565.625 122.52 565.045 122.86 564.618 123.18C564.192 123.5 563.885 123.82 563.698 124.14C563.512 124.46 563.418 124.813 563.418 125.2C563.418 125.587 563.532 125.927 563.758 126.22C563.998 126.513 564.332 126.747 564.758 126.92C565.185 127.08 565.685 127.16 566.258 127.16C567.112 127.16 567.885 126.973 568.578 126.6C569.285 126.213 569.878 125.64 570.358 124.88C570.838 124.12 571.185 123.18 571.398 122.06L573.418 122.72C573.138 124.067 572.652 125.227 571.958 126.2C571.278 127.16 570.438 127.9 569.438 128.42C568.438 128.94 567.318 129.2 566.078 129.2ZM581.087 129V115H583.687V129H581.087ZM592.993 118.2C593.847 118.2 594.607 118.367 595.273 118.7C595.953 119.033 596.487 119.547 596.873 120.24C597.26 120.92 597.453 121.8 597.453 122.88V129H594.953V123.2C594.953 122.253 594.727 121.547 594.273 121.08C593.833 120.613 593.213 120.38 592.413 120.38C591.827 120.38 591.307 120.5 590.853 120.74C590.4 120.98 590.047 121.34 589.793 121.82C589.553 122.287 589.433 122.88 589.433 123.6V129H586.933V118.32H589.313V121.2L588.893 120.32C589.267 119.64 589.807 119.12 590.513 118.76C591.233 118.387 592.06 118.2 592.993 118.2ZM605.244 129.14C604.124 129.14 603.124 128.907 602.244 128.44C601.378 127.96 600.698 127.307 600.204 126.48C599.711 125.653 599.464 124.713 599.464 123.66C599.464 122.593 599.711 121.653 600.204 120.84C600.698 120.013 601.378 119.367 602.244 118.9C603.124 118.433 604.124 118.2 605.244 118.2C606.284 118.2 607.198 118.413 607.984 118.84C608.784 119.253 609.391 119.867 609.804 120.68L607.884 121.8C607.564 121.293 607.171 120.92 606.704 120.68C606.251 120.44 605.758 120.32 605.224 120.32C604.611 120.32 604.058 120.453 603.564 120.72C603.071 120.987 602.684 121.373 602.404 121.88C602.124 122.373 601.984 122.967 601.984 123.66C601.984 124.353 602.124 124.953 602.404 125.46C602.684 125.953 603.071 126.333 603.564 126.6C604.058 126.867 604.611 127 605.224 127C605.758 127 606.251 126.88 606.704 126.64C607.171 126.4 607.564 126.027 607.884 125.52L609.804 126.64C609.391 127.44 608.784 128.06 607.984 128.5C607.198 128.927 606.284 129.14 605.244 129.14ZM611.568 129V118.32H614.068V129H611.568ZM612.828 116.56C612.361 116.56 611.974 116.413 611.668 116.12C611.374 115.827 611.228 115.473 611.228 115.06C611.228 114.633 611.374 114.28 611.668 114C611.974 113.707 612.361 113.56 612.828 113.56C613.294 113.56 613.674 113.7 613.968 113.98C614.274 114.247 614.428 114.587 614.428 115C614.428 115.44 614.281 115.813 613.988 116.12C613.694 116.413 613.308 116.56 612.828 116.56ZM621.569 129.14C620.542 129.14 619.616 128.913 618.789 128.46C617.976 127.993 617.336 127.353 616.869 126.54C616.402 125.727 616.169 124.767 616.169 123.66C616.169 122.553 616.402 121.593 616.869 120.78C617.336 119.967 617.976 119.333 618.789 118.88C619.616 118.427 620.542 118.2 621.569 118.2C622.462 118.2 623.262 118.4 623.969 118.8C624.676 119.187 625.236 119.78 625.649 120.58C626.062 121.38 626.269 122.407 626.269 123.66C626.269 124.9 626.069 125.927 625.669 126.74C625.269 127.54 624.716 128.14 624.009 128.54C623.302 128.94 622.489 129.14 621.569 129.14ZM621.869 127C622.469 127 623.002 126.867 623.469 126.6C623.949 126.333 624.329 125.947 624.609 125.44C624.902 124.933 625.049 124.34 625.049 123.66C625.049 122.967 624.902 122.373 624.609 121.88C624.329 121.373 623.949 120.987 623.469 120.72C623.002 120.453 622.469 120.32 621.869 120.32C621.269 120.32 620.729 120.453 620.249 120.72C619.782 120.987 619.402 121.373 619.109 121.88C618.829 122.373 618.689 122.967 618.689 123.66C618.689 124.34 618.829 124.933 619.109 125.44C619.402 125.947 619.782 126.333 620.249 126.6C620.729 126.867 621.269 127 621.869 127ZM625.109 129V126.48L625.209 123.64L625.009 120.8V114.16H627.489V129H625.109ZM635.499 129.14C634.313 129.14 633.273 128.907 632.379 128.44C631.499 127.96 630.813 127.307 630.319 126.48C629.839 125.653 629.599 124.713 629.599 123.66C629.599 122.593 629.833 121.653 630.299 120.84C630.779 120.013 631.433 119.367 632.259 118.9C633.099 118.433 634.053 118.2 635.119 118.2C636.159 118.2 637.086 118.427 637.899 118.88C638.713 119.333 639.353 119.973 639.819 120.8C640.286 121.627 640.519 122.6 640.519 123.72C640.519 123.827 640.513 123.947 640.499 124.08C640.499 124.213 640.493 124.34 640.479 124.46H631.579V122.8H639.159L638.179 123.32C638.193 122.707 638.066 122.167 637.799 121.7C637.533 121.233 637.166 120.867 636.699 120.6C636.246 120.333 635.719 120.2 635.119 120.2C634.506 120.2 633.966 120.333 633.499 120.6C633.046 120.867 632.686 121.24 632.419 121.72C632.166 122.187 632.039 122.74 632.039 123.38V123.78C632.039 124.42 632.186 124.987 632.479 125.48C632.773 125.973 633.186 126.353 633.719 126.62C634.253 126.887 634.866 127.02 635.559 127.02C636.159 127.02 636.699 126.927 637.179 126.74C637.659 126.553 638.086 126.26 638.459 125.86L639.799 127.4C639.319 127.96 638.713 128.393 637.979 128.7C637.259 128.993 636.433 129.14 635.499 129.14ZM648.681 118.2C649.534 118.2 650.294 118.367 650.961 118.7C651.641 119.033 652.174 119.547 652.561 120.24C652.948 120.92 653.141 121.8 653.141 122.88V129H650.641V123.2C650.641 122.253 650.414 121.547 649.961 121.08C649.521 120.613 648.901 120.38 648.101 120.38C647.514 120.38 646.994 120.5 646.541 120.74C646.088 120.98 645.734 121.34 645.481 121.82C645.241 122.287 645.121 122.88 645.121 123.6V129H642.621V118.32H645.001V121.2L644.581 120.32C644.954 119.64 645.494 119.12 646.201 118.76C646.921 118.387 647.748 118.2 648.681 118.2ZM660.032 129.14C658.859 129.14 657.952 128.84 657.312 128.24C656.672 127.627 656.352 126.727 656.352 125.54V115.96H658.852V125.48C658.852 125.987 658.979 126.38 659.232 126.66C659.499 126.94 659.866 127.08 660.332 127.08C660.892 127.08 661.359 126.933 661.732 126.64L662.432 128.42C662.139 128.66 661.779 128.84 661.352 128.96C660.926 129.08 660.486 129.14 660.032 129.14ZM654.592 120.4V118.4H661.712V120.4H654.592ZM667.489 129.14C666.595 129.14 665.735 129.027 664.909 128.8C664.095 128.56 663.449 128.273 662.969 127.94L663.929 126.04C664.409 126.347 664.982 126.6 665.649 126.8C666.315 127 666.982 127.1 667.649 127.1C668.435 127.1 669.002 126.993 669.349 126.78C669.709 126.567 669.889 126.28 669.889 125.92C669.889 125.627 669.769 125.407 669.529 125.26C669.289 125.1 668.975 124.98 668.589 124.9C668.202 124.82 667.769 124.747 667.289 124.68C666.822 124.613 666.349 124.527 665.869 124.42C665.402 124.3 664.975 124.133 664.589 123.92C664.202 123.693 663.889 123.393 663.649 123.02C663.409 122.647 663.289 122.153 663.289 121.54C663.289 120.86 663.482 120.273 663.869 119.78C664.255 119.273 664.795 118.887 665.489 118.62C666.195 118.34 667.029 118.2 667.989 118.2C668.709 118.2 669.435 118.28 670.169 118.44C670.902 118.6 671.509 118.827 671.989 119.12L671.029 121.02C670.522 120.713 670.009 120.507 669.489 120.4C668.982 120.28 668.475 120.22 667.969 120.22C667.209 120.22 666.642 120.333 666.269 120.56C665.909 120.787 665.729 121.073 665.729 121.42C665.729 121.74 665.849 121.98 666.089 122.14C666.329 122.3 666.642 122.427 667.029 122.52C667.415 122.613 667.842 122.693 668.309 122.76C668.789 122.813 669.262 122.9 669.729 123.02C670.195 123.14 670.622 123.307 671.009 123.52C671.409 123.72 671.729 124.007 671.969 124.38C672.209 124.753 672.329 125.24 672.329 125.84C672.329 126.507 672.129 127.087 671.729 127.58C671.342 128.073 670.789 128.46 670.069 128.74C669.349 129.007 668.489 129.14 667.489 129.14Z" fill="white"/>
<path d="M598.019 76H635.991C637.488 76 638.462 74.4247 637.793 73.0847C637.793 73.0847 637.793 73.0846 637.793 73.0845L618.807 35.1135C618.065 33.6289 615.946 33.6288 615.203 35.1133L598.019 76ZM598.019 76C596.523 76 595.548 74.4244 596.218 73.0847C596.218 73.0847 596.218 73.0846 596.218 73.0845L615.203 35.1135L598.019 76Z" fill="#FF9734" stroke="white" stroke-width="4"/>
<path d="M617.005 35.3675C617.188 35.3675 617.437 35.4294 617.585 35.7257L636.571 73.6971C636.678 73.9116 636.669 74.1236 636.542 74.3277C636.416 74.5319 636.23 74.6351 635.991 74.6351H598.02C597.78 74.6351 597.595 74.5319 597.468 74.3277C597.342 74.1236 597.333 73.9116 597.44 73.6971L616.426 35.7257C616.573 35.4294 616.823 35.3675 617.005 35.3675ZM617.005 34.752C616.77 34.752 616.191 34.8203 615.875 35.4509L596.889 73.4215C596.615 73.9696 596.806 74.427 596.945 74.651C597.083 74.875 597.407 75.2498 598.02 75.2498H635.991C636.604 75.2498 636.927 74.8742 637.066 74.651C637.205 74.4278 637.396 73.9696 637.122 73.4215L618.136 35.4501C617.82 34.8195 617.24 34.752 617.005 34.752Z" fill="white"/>
<path d="M618.236 65.4571H615.775L614.037 45.7129H619.973L618.236 65.4571Z" fill="white"/>
<path d="M617 71.4279C615.846 71.4279 614.909 70.5124 614.909 69.3841V69.2891C614.909 68.1608 615.845 67.2461 617 67.2461C618.154 67.2461 619.091 68.1608 619.091 69.2891V69.3841C619.091 70.5124 618.155 71.4279 617 71.4279Z" fill="white"/>
<circle cx="346" cy="326" r="80" fill="#FF9734"/>
<g clip-path="url(#clip0_572_1529)">
<path d="M309.713 319.233C309.478 318.177 309.294 317.099 309.173 316.01L309.092 315.192L309.055 314.37C309.049 314.202 309.041 314.034 309.033 313.865C309.014 313.482 308.995 313.098 309.007 312.714C308.974 310.496 309.257 308.271 309.702 306.064C310.606 301.643 312.447 297.364 314.991 293.502C315.089 293.359 315.186 293.215 315.284 293.072C315.512 292.736 315.74 292.4 315.979 292.073L317.03 290.685C317.773 289.789 318.533 288.909 319.349 288.072C320.959 286.376 322.753 284.856 324.645 283.457C326.553 282.079 328.607 280.896 330.731 279.85C332.87 278.838 335.098 277.998 337.391 277.373C339.688 276.774 342.029 276.339 344.392 276.12C346.759 275.944 349.13 275.948 351.482 276.16C351.865 276.193 352.247 276.247 352.629 276.3C352.832 276.329 353.035 276.357 353.238 276.383C353.437 276.414 353.636 276.44 353.835 276.466C354.22 276.516 354.604 276.566 354.984 276.653L355.081 276.673C356.203 276.9 357.323 277.127 358.413 277.468C360.684 278.056 362.849 278.974 364.948 279.956C369.104 282.028 372.835 284.835 375.881 288.156C377.355 289.873 378.755 291.616 379.84 293.56C379.933 293.728 380.031 293.892 380.128 294.055C380.312 294.365 380.495 294.673 380.652 295.004L381.38 296.48C381.59 296.912 381.764 297.367 381.936 297.816C381.959 297.876 381.981 297.936 382.004 297.996C382.203 298.504 382.387 299.016 382.559 299.524L382.096 299.794C379.909 296.235 377.16 293.038 373.989 290.334C370.795 287.659 367.193 285.463 363.327 283.899C359.45 282.375 355.333 281.433 351.173 281.191C349.093 281.096 347.005 281.122 344.932 281.338C342.863 281.568 340.813 281.962 338.81 282.511C334.785 283.578 330.967 285.357 327.494 287.644C324.05 289.972 320.941 292.815 318.394 296.107C315.843 299.388 313.807 303.075 312.447 307.003C311.029 310.913 310.327 315.068 310.25 319.233H309.713Z" fill="white"/>
<path d="M309.713 319.233C309.478 318.177 309.294 317.099 309.173 316.01L309.092 315.192L309.055 314.37C309.049 314.202 309.041 314.034 309.033 313.865C309.014 313.482 308.995 313.098 309.007 312.714C308.974 310.496 309.257 308.271 309.702 306.064C310.606 301.643 312.447 297.364 314.991 293.502C315.089 293.359 315.186 293.215 315.284 293.072C315.512 292.736 315.74 292.4 315.979 292.073L317.03 290.685C317.773 289.789 318.533 288.909 319.349 288.072C320.959 286.376 322.753 284.856 324.645 283.457C326.553 282.079 328.607 280.896 330.731 279.85C332.87 278.838 335.098 277.998 337.391 277.373C339.688 276.774 342.029 276.339 344.392 276.12C346.759 275.944 349.13 275.948 351.482 276.16C351.865 276.193 352.247 276.247 352.629 276.3C352.832 276.329 353.035 276.357 353.238 276.383C353.437 276.414 353.636 276.44 353.835 276.466C354.22 276.516 354.604 276.566 354.984 276.653L355.081 276.673C356.203 276.9 357.323 277.127 358.413 277.468C360.684 278.056 362.849 278.974 364.948 279.956C369.104 282.028 372.835 284.835 375.881 288.156C377.355 289.873 378.755 291.616 379.84 293.56C379.933 293.728 380.031 293.892 380.128 294.055C380.312 294.365 380.495 294.673 380.652 295.004L381.38 296.48C381.59 296.912 381.764 297.367 381.936 297.816C381.959 297.876 381.981 297.936 382.004 297.996C382.203 298.504 382.387 299.016 382.559 299.524L382.096 299.794C379.909 296.235 377.16 293.038 373.989 290.334C370.795 287.659 367.193 285.463 363.327 283.899C359.45 282.375 355.333 281.433 351.173 281.191C349.093 281.096 347.005 281.122 344.932 281.338C342.863 281.568 340.813 281.962 338.81 282.511C334.785 283.578 330.967 285.357 327.494 287.644C324.05 289.972 320.941 292.815 318.394 296.107C315.843 299.388 313.807 303.075 312.447 307.003C311.029 310.913 310.327 315.068 310.25 319.233H309.713Z" stroke="black"/>
<path d="M344.282 316.04C345.866 315.353 347.707 316.072 348.398 317.647C349.089 319.222 348.365 321.053 346.781 321.74C345.197 322.427 343.356 321.707 342.665 320.132C341.974 318.557 342.698 316.726 344.278 316.04H344.282Z" fill="white"/>
<path d="M346.34 320.728L344.727 317.052L383.89 302.176C383.996 302.136 384.044 302.25 383.945 302.301L346.34 320.728Z" fill="white"/>
</g>
<path d="M308.066 333H310.666V347H308.066V333ZM300.826 347H298.226V333H300.826V347ZM308.266 341H300.606V338.78H308.266V341ZM320.457 347V344.84L320.317 344.38V340.6C320.317 339.867 320.097 339.3 319.657 338.9C319.217 338.487 318.551 338.28 317.657 338.28C317.057 338.28 316.464 338.373 315.877 338.56C315.304 338.747 314.817 339.007 314.417 339.34L313.437 337.52C314.011 337.08 314.691 336.753 315.477 336.54C316.277 336.313 317.104 336.2 317.957 336.2C319.504 336.2 320.697 336.573 321.537 337.32C322.391 338.053 322.818 339.193 322.818 340.74V347H320.457ZM317.097 347.14C316.297 347.14 315.597 347.007 314.997 346.74C314.397 346.46 313.931 346.08 313.597 345.6C313.277 345.107 313.117 344.553 313.117 343.94C313.117 343.34 313.257 342.8 313.537 342.32C313.831 341.84 314.304 341.46 314.957 341.18C315.611 340.9 316.477 340.76 317.557 340.76H320.657V342.42H317.737C316.884 342.42 316.311 342.56 316.017 342.84C315.724 343.107 315.577 343.44 315.577 343.84C315.577 344.293 315.757 344.653 316.117 344.92C316.477 345.187 316.977 345.32 317.617 345.32C318.231 345.32 318.777 345.18 319.257 344.9C319.751 344.62 320.104 344.207 320.317 343.66L320.737 345.16C320.497 345.787 320.064 346.273 319.437 346.62C318.824 346.967 318.044 347.14 317.097 347.14ZM324.846 347V345.42L331.426 337.46L331.886 338.32H324.966V336.32H333.886V337.9L327.306 345.86L326.806 345H334.066V347H324.846ZM342.65 347V344.84L342.51 344.38V340.6C342.51 339.867 342.29 339.3 341.85 338.9C341.41 338.487 340.744 338.28 339.85 338.28C339.25 338.28 338.657 338.373 338.07 338.56C337.497 338.747 337.01 339.007 336.61 339.34L335.63 337.52C336.204 337.08 336.884 336.753 337.67 336.54C338.47 336.313 339.297 336.2 340.15 336.2C341.697 336.2 342.89 336.573 343.73 337.32C344.584 338.053 345.01 339.193 345.01 340.74V347H342.65ZM339.29 347.14C338.49 347.14 337.79 347.007 337.19 346.74C336.59 346.46 336.124 346.08 335.79 345.6C335.47 345.107 335.31 344.553 335.31 343.94C335.31 343.34 335.45 342.8 335.73 342.32C336.024 341.84 336.497 341.46 337.15 341.18C337.804 340.9 338.67 340.76 339.75 340.76H342.85V342.42H339.93C339.077 342.42 338.504 342.56 338.21 342.84C337.917 343.107 337.77 343.44 337.77 343.84C337.77 344.293 337.95 344.653 338.31 344.92C338.67 345.187 339.17 345.32 339.81 345.32C340.424 345.32 340.97 345.18 341.45 344.9C341.944 344.62 342.297 344.207 342.51 343.66L342.93 345.16C342.69 345.787 342.257 346.273 341.63 346.62C341.017 346.967 340.237 347.14 339.29 347.14ZM347.919 347V336.32H350.299V339.26L350.019 338.4C350.339 337.68 350.839 337.133 351.519 336.76C352.212 336.387 353.072 336.2 354.099 336.2V338.58C353.992 338.553 353.892 338.54 353.799 338.54C353.706 338.527 353.612 338.52 353.519 338.52C352.572 338.52 351.819 338.8 351.259 339.36C350.699 339.907 350.419 340.727 350.419 341.82V347H347.919ZM360.342 347.14C359.315 347.14 358.389 346.913 357.562 346.46C356.749 345.993 356.109 345.353 355.642 344.54C355.175 343.727 354.942 342.767 354.942 341.66C354.942 340.553 355.175 339.593 355.642 338.78C356.109 337.967 356.749 337.333 357.562 336.88C358.389 336.427 359.315 336.2 360.342 336.2C361.235 336.2 362.035 336.4 362.742 336.8C363.449 337.187 364.009 337.78 364.422 338.58C364.835 339.38 365.042 340.407 365.042 341.66C365.042 342.9 364.842 343.927 364.442 344.74C364.042 345.54 363.489 346.14 362.782 346.54C362.075 346.94 361.262 347.14 360.342 347.14ZM360.642 345C361.242 345 361.775 344.867 362.242 344.6C362.722 344.333 363.102 343.947 363.382 343.44C363.675 342.933 363.822 342.34 363.822 341.66C363.822 340.967 363.675 340.373 363.382 339.88C363.102 339.373 362.722 338.987 362.242 338.72C361.775 338.453 361.242 338.32 360.642 338.32C360.042 338.32 359.502 338.453 359.022 338.72C358.555 338.987 358.175 339.373 357.882 339.88C357.602 340.373 357.462 340.967 357.462 341.66C357.462 342.34 357.602 342.933 357.882 343.44C358.175 343.947 358.555 344.333 359.022 344.6C359.502 344.867 360.042 345 360.642 345ZM363.882 347V344.48L363.982 341.64L363.782 338.8V332.16H366.262V347H363.882ZM372.552 347.14C371.659 347.14 370.799 347.027 369.972 346.8C369.159 346.56 368.512 346.273 368.032 345.94L368.992 344.04C369.472 344.347 370.046 344.6 370.712 344.8C371.379 345 372.046 345.1 372.712 345.1C373.499 345.1 374.066 344.993 374.412 344.78C374.772 344.567 374.952 344.28 374.952 343.92C374.952 343.627 374.832 343.407 374.592 343.26C374.352 343.1 374.039 342.98 373.652 342.9C373.266 342.82 372.832 342.747 372.352 342.68C371.886 342.613 371.412 342.527 370.932 342.42C370.466 342.3 370.039 342.133 369.652 341.92C369.266 341.693 368.952 341.393 368.712 341.02C368.472 340.647 368.352 340.153 368.352 339.54C368.352 338.86 368.546 338.273 368.932 337.78C369.319 337.273 369.859 336.887 370.552 336.62C371.259 336.34 372.092 336.2 373.052 336.2C373.772 336.2 374.499 336.28 375.232 336.44C375.966 336.6 376.572 336.827 377.052 337.12L376.092 339.02C375.586 338.713 375.072 338.507 374.552 338.4C374.046 338.28 373.539 338.22 373.032 338.22C372.272 338.22 371.706 338.333 371.332 338.56C370.972 338.787 370.792 339.073 370.792 339.42C370.792 339.74 370.912 339.98 371.152 340.14C371.392 340.3 371.706 340.427 372.092 340.52C372.479 340.613 372.906 340.693 373.372 340.76C373.852 340.813 374.326 340.9 374.792 341.02C375.259 341.14 375.686 341.307 376.072 341.52C376.472 341.72 376.792 342.007 377.032 342.38C377.272 342.753 377.392 343.24 377.392 343.84C377.392 344.507 377.192 345.087 376.792 345.58C376.406 346.073 375.852 346.46 375.132 346.74C374.412 347.007 373.552 347.14 372.552 347.14ZM388.753 347.2C387.779 347.2 386.906 347.04 386.133 346.72C385.359 346.4 384.753 345.96 384.313 345.4C383.873 344.84 383.653 344.193 383.653 343.46C383.653 342.793 383.799 342.193 384.093 341.66C384.386 341.127 384.853 340.62 385.493 340.14C386.133 339.647 386.953 339.153 387.953 338.66C388.739 338.273 389.353 337.933 389.793 337.64C390.246 337.347 390.559 337.067 390.733 336.8C390.919 336.533 391.013 336.253 391.013 335.96C391.013 335.56 390.873 335.24 390.593 335C390.313 334.747 389.913 334.62 389.393 334.62C388.833 334.62 388.393 334.76 388.073 335.04C387.766 335.307 387.613 335.66 387.613 336.1C387.613 336.327 387.653 336.547 387.733 336.76C387.826 336.973 387.986 337.213 388.213 337.48C388.439 337.747 388.766 338.087 389.193 338.5L396.593 345.6L395.213 347.22L387.213 339.54C386.759 339.1 386.393 338.693 386.113 338.32C385.833 337.947 385.633 337.587 385.513 337.24C385.393 336.88 385.333 336.513 385.333 336.14C385.333 335.487 385.499 334.913 385.833 334.42C386.166 333.913 386.639 333.527 387.253 333.26C387.866 332.98 388.579 332.84 389.393 332.84C390.153 332.84 390.806 332.967 391.353 333.22C391.913 333.46 392.346 333.813 392.653 334.28C392.973 334.733 393.133 335.28 393.133 335.92C393.133 336.48 392.993 337 392.713 337.48C392.433 337.947 391.993 338.393 391.393 338.82C390.806 339.247 390.019 339.693 389.033 340.16C388.299 340.52 387.719 340.86 387.293 341.18C386.866 341.5 386.559 341.82 386.373 342.14C386.186 342.46 386.093 342.813 386.093 343.2C386.093 343.587 386.206 343.927 386.433 344.22C386.673 344.513 387.006 344.747 387.433 344.92C387.859 345.08 388.359 345.16 388.933 345.16C389.786 345.16 390.559 344.973 391.253 344.6C391.959 344.213 392.553 343.64 393.033 342.88C393.513 342.12 393.859 341.18 394.073 340.06L396.093 340.72C395.813 342.067 395.326 343.227 394.633 344.2C393.953 345.16 393.113 345.9 392.113 346.42C391.113 346.94 389.993 347.2 388.753 347.2ZM322.291 374V360H328.051C329.291 360 330.351 360.2 331.231 360.6C332.124 361 332.811 361.573 333.291 362.32C333.771 363.067 334.011 363.953 334.011 364.98C334.011 366.007 333.771 366.893 333.291 367.64C332.811 368.373 332.124 368.94 331.231 369.34C330.351 369.727 329.291 369.92 328.051 369.92H323.731L324.891 368.74V374H322.291ZM331.451 374L327.911 368.92H330.691L334.251 374H331.451ZM324.891 369.02L323.731 367.78H327.931C329.077 367.78 329.937 367.533 330.511 367.04C331.097 366.547 331.391 365.86 331.391 364.98C331.391 364.087 331.097 363.4 330.511 362.92C329.937 362.44 329.077 362.2 327.931 362.2H323.731L324.891 360.92V369.02ZM336.379 374V363.32H338.879V374H336.379ZM337.639 361.56C337.173 361.56 336.786 361.413 336.479 361.12C336.186 360.827 336.039 360.473 336.039 360.06C336.039 359.633 336.186 359.28 336.479 359C336.786 358.707 337.173 358.56 337.639 358.56C338.106 358.56 338.486 358.7 338.779 358.98C339.086 359.247 339.239 359.587 339.239 360C339.239 360.44 339.093 360.813 338.799 361.12C338.506 361.413 338.119 361.56 337.639 361.56ZM345.161 374.14C344.267 374.14 343.407 374.027 342.581 373.8C341.767 373.56 341.121 373.273 340.641 372.94L341.601 371.04C342.081 371.347 342.654 371.6 343.321 371.8C343.987 372 344.654 372.1 345.321 372.1C346.107 372.1 346.674 371.993 347.021 371.78C347.381 371.567 347.561 371.28 347.561 370.92C347.561 370.627 347.441 370.407 347.201 370.26C346.961 370.1 346.647 369.98 346.261 369.9C345.874 369.82 345.441 369.747 344.961 369.68C344.494 369.613 344.021 369.527 343.541 369.42C343.074 369.3 342.647 369.133 342.261 368.92C341.874 368.693 341.561 368.393 341.321 368.02C341.081 367.647 340.961 367.153 340.961 366.54C340.961 365.86 341.154 365.273 341.541 364.78C341.927 364.273 342.467 363.887 343.161 363.62C343.867 363.34 344.701 363.2 345.661 363.2C346.381 363.2 347.107 363.28 347.841 363.44C348.574 363.6 349.181 363.827 349.661 364.12L348.701 366.02C348.194 365.713 347.681 365.507 347.161 365.4C346.654 365.28 346.147 365.22 345.641 365.22C344.881 365.22 344.314 365.333 343.941 365.56C343.581 365.787 343.401 366.073 343.401 366.42C343.401 366.74 343.521 366.98 343.761 367.14C344.001 367.3 344.314 367.427 344.701 367.52C345.087 367.613 345.514 367.693 345.981 367.76C346.461 367.813 346.934 367.9 347.401 368.02C347.867 368.14 348.294 368.307 348.681 368.52C349.081 368.72 349.401 369.007 349.641 369.38C349.881 369.753 350.001 370.24 350.001 370.84C350.001 371.507 349.801 372.087 349.401 372.58C349.014 373.073 348.461 373.46 347.741 373.74C347.021 374.007 346.161 374.14 345.161 374.14ZM353.894 371.62L353.954 368.48L359.534 363.32H362.534L357.794 368.08L356.474 369.18L353.894 371.62ZM351.854 374V359.16H354.354V374H351.854ZM359.914 374L356.014 369.18L357.594 367.18L362.954 374H359.914ZM367.236 374.14C366.343 374.14 365.483 374.027 364.656 373.8C363.843 373.56 363.196 373.273 362.716 372.94L363.676 371.04C364.156 371.347 364.73 371.6 365.396 371.8C366.063 372 366.73 372.1 367.396 372.1C368.183 372.1 368.75 371.993 369.096 371.78C369.456 371.567 369.636 371.28 369.636 370.92C369.636 370.627 369.516 370.407 369.276 370.26C369.036 370.1 368.723 369.98 368.336 369.9C367.95 369.82 367.516 369.747 367.036 369.68C366.57 369.613 366.096 369.527 365.616 369.42C365.15 369.3 364.723 369.133 364.336 368.92C363.95 368.693 363.636 368.393 363.396 368.02C363.156 367.647 363.036 367.153 363.036 366.54C363.036 365.86 363.23 365.273 363.616 364.78C364.003 364.273 364.543 363.887 365.236 363.62C365.943 363.34 366.776 363.2 367.736 363.2C368.456 363.2 369.183 363.28 369.916 363.44C370.65 363.6 371.256 363.827 371.736 364.12L370.776 366.02C370.27 365.713 369.756 365.507 369.236 365.4C368.73 365.28 368.223 365.22 367.716 365.22C366.956 365.22 366.39 365.333 366.016 365.56C365.656 365.787 365.476 366.073 365.476 366.42C365.476 366.74 365.596 366.98 365.836 367.14C366.076 367.3 366.39 367.427 366.776 367.52C367.163 367.613 367.59 367.693 368.056 367.76C368.536 367.813 369.01 367.9 369.476 368.02C369.943 368.14 370.37 368.307 370.756 368.52C371.156 368.72 371.476 369.007 371.716 369.38C371.956 369.753 372.076 370.24 372.076 370.84C372.076 371.507 371.876 372.087 371.476 372.58C371.09 373.073 370.536 373.46 369.816 373.74C369.096 374.007 368.236 374.14 367.236 374.14Z" fill="white"/>
<circle cx="615" cy="572" r="80" fill="#FF9734"/>
<path d="M570.364 609V595H572.504L578.624 605.22H577.504L583.524 595H585.664L585.684 609H583.224L583.204 598.86H583.724L578.604 607.4H577.444L572.244 598.86H572.844V609H570.364ZM593.945 609.14C592.758 609.14 591.718 608.907 590.825 608.44C589.945 607.96 589.258 607.307 588.765 606.48C588.285 605.653 588.045 604.713 588.045 603.66C588.045 602.593 588.278 601.653 588.745 600.84C589.225 600.013 589.878 599.367 590.705 598.9C591.545 598.433 592.498 598.2 593.565 598.2C594.605 598.2 595.532 598.427 596.345 598.88C597.158 599.333 597.798 599.973 598.265 600.8C598.732 601.627 598.965 602.6 598.965 603.72C598.965 603.827 598.958 603.947 598.945 604.08C598.945 604.213 598.938 604.34 598.925 604.46H590.025V602.8H597.605L596.625 603.32C596.638 602.707 596.512 602.167 596.245 601.7C595.978 601.233 595.612 600.867 595.145 600.6C594.692 600.333 594.165 600.2 593.565 600.2C592.952 600.2 592.412 600.333 591.945 600.6C591.492 600.867 591.132 601.24 590.865 601.72C590.612 602.187 590.485 602.74 590.485 603.38V603.78C590.485 604.42 590.632 604.987 590.925 605.48C591.218 605.973 591.632 606.353 592.165 606.62C592.698 606.887 593.312 607.02 594.005 607.02C594.605 607.02 595.145 606.927 595.625 606.74C596.105 606.553 596.532 606.26 596.905 605.86L598.245 607.4C597.765 607.96 597.158 608.393 596.425 608.7C595.705 608.993 594.878 609.14 593.945 609.14ZM606.087 609.14C604.9 609.14 603.86 608.907 602.967 608.44C602.087 607.96 601.4 607.307 600.907 606.48C600.427 605.653 600.187 604.713 600.187 603.66C600.187 602.593 600.42 601.653 600.887 600.84C601.367 600.013 602.02 599.367 602.847 598.9C603.687 598.433 604.64 598.2 605.707 598.2C606.747 598.2 607.673 598.427 608.487 598.88C609.3 599.333 609.94 599.973 610.407 600.8C610.873 601.627 611.107 602.6 611.107 603.72C611.107 603.827 611.1 603.947 611.087 604.08C611.087 604.213 611.08 604.34 611.067 604.46H602.167V602.8H609.747L608.767 603.32C608.78 602.707 608.653 602.167 608.387 601.7C608.12 601.233 607.753 600.867 607.287 600.6C606.833 600.333 606.307 600.2 605.707 600.2C605.093 600.2 604.553 600.333 604.087 600.6C603.633 600.867 603.273 601.24 603.007 601.72C602.753 602.187 602.627 602.74 602.627 603.38V603.78C602.627 604.42 602.773 604.987 603.067 605.48C603.36 605.973 603.773 606.353 604.307 606.62C604.84 606.887 605.453 607.02 606.147 607.02C606.747 607.02 607.287 606.927 607.767 606.74C608.247 606.553 608.673 606.26 609.047 605.86L610.387 607.4C609.907 607.96 609.3 608.393 608.567 608.7C607.847 608.993 607.02 609.14 606.087 609.14ZM617.228 609.14C616.055 609.14 615.148 608.84 614.508 608.24C613.868 607.627 613.548 606.727 613.548 605.54V595.96H616.048V605.48C616.048 605.987 616.175 606.38 616.428 606.66C616.695 606.94 617.061 607.08 617.528 607.08C618.088 607.08 618.555 606.933 618.928 606.64L619.628 608.42C619.335 608.66 618.975 608.84 618.548 608.96C618.121 609.08 617.681 609.14 617.228 609.14ZM611.788 600.4V598.4H618.908V600.4H611.788ZM621.385 609V598.32H623.885V609H621.385ZM622.645 596.56C622.178 596.56 621.791 596.413 621.485 596.12C621.191 595.827 621.045 595.473 621.045 595.06C621.045 594.633 621.191 594.28 621.485 594C621.791 593.707 622.178 593.56 622.645 593.56C623.111 593.56 623.491 593.7 623.785 593.98C624.091 594.247 624.245 594.587 624.245 595C624.245 595.44 624.098 595.813 623.805 596.12C623.511 596.413 623.125 596.56 622.645 596.56ZM632.926 598.2C633.779 598.2 634.539 598.367 635.206 598.7C635.886 599.033 636.419 599.547 636.806 600.24C637.192 600.92 637.386 601.8 637.386 602.88V609H634.886V603.2C634.886 602.253 634.659 601.547 634.206 601.08C633.766 600.613 633.146 600.38 632.346 600.38C631.759 600.38 631.239 600.5 630.786 600.74C630.332 600.98 629.979 601.34 629.726 601.82C629.486 602.287 629.366 602.88 629.366 603.6V609H626.866V598.32H629.246V601.2L628.826 600.32C629.199 599.64 629.739 599.12 630.446 598.76C631.166 598.387 631.992 598.2 632.926 598.2ZM645.117 613.02C644.13 613.02 643.163 612.887 642.217 612.62C641.283 612.367 640.517 611.993 639.917 611.5L641.037 609.62C641.503 610.007 642.09 610.313 642.797 610.54C643.517 610.78 644.243 610.9 644.977 610.9C646.15 610.9 647.01 610.627 647.557 610.08C648.103 609.547 648.377 608.74 648.377 607.66V605.76L648.577 603.34L648.497 600.92V598.32H650.877V607.38C650.877 609.313 650.383 610.733 649.397 611.64C648.41 612.56 646.983 613.02 645.117 613.02ZM644.797 608.52C643.783 608.52 642.863 608.307 642.037 607.88C641.223 607.44 640.577 606.833 640.097 606.06C639.63 605.287 639.397 604.38 639.397 603.34C639.397 602.313 639.63 601.413 640.097 600.64C640.577 599.867 641.223 599.267 642.037 598.84C642.863 598.413 643.783 598.2 644.797 598.2C645.703 598.2 646.517 598.38 647.237 598.74C647.957 599.1 648.53 599.66 648.957 600.42C649.397 601.18 649.617 602.153 649.617 603.34C649.617 604.527 649.397 605.507 648.957 606.28C648.53 607.04 647.957 607.607 647.237 607.98C646.517 608.34 645.703 608.52 644.797 608.52ZM645.177 606.4C645.803 606.4 646.363 606.273 646.857 606.02C647.35 605.753 647.73 605.393 647.997 604.94C648.277 604.473 648.417 603.94 648.417 603.34C648.417 602.74 648.277 602.213 647.997 601.76C647.73 601.293 647.35 600.94 646.857 600.7C646.363 600.447 645.803 600.32 645.177 600.32C644.55 600.32 643.983 600.447 643.477 600.7C642.983 600.94 642.597 601.293 642.317 601.76C642.05 602.213 641.917 602.74 641.917 603.34C641.917 603.94 642.05 604.473 642.317 604.94C642.597 605.393 642.983 605.753 643.477 606.02C643.983 606.273 644.55 606.4 645.177 606.4ZM657.163 609.14C656.27 609.14 655.41 609.027 654.583 608.8C653.77 608.56 653.123 608.273 652.643 607.94L653.603 606.04C654.083 606.347 654.657 606.6 655.323 606.8C655.99 607 656.657 607.1 657.323 607.1C658.11 607.1 658.677 606.993 659.023 606.78C659.383 606.567 659.563 606.28 659.563 605.92C659.563 605.627 659.443 605.407 659.203 605.26C658.963 605.1 658.65 604.98 658.263 604.9C657.877 604.82 657.443 604.747 656.963 604.68C656.497 604.613 656.023 604.527 655.543 604.42C655.077 604.3 654.65 604.133 654.263 603.92C653.877 603.693 653.563 603.393 653.323 603.02C653.083 602.647 652.963 602.153 652.963 601.54C652.963 600.86 653.157 600.273 653.543 599.78C653.93 599.273 654.47 598.887 655.163 598.62C655.87 598.34 656.703 598.2 657.663 598.2C658.383 598.2 659.11 598.28 659.843 598.44C660.577 598.6 661.183 598.827 661.663 599.12L660.703 601.02C660.197 600.713 659.683 600.507 659.163 600.4C658.657 600.28 658.15 600.22 657.643 600.22C656.883 600.22 656.317 600.333 655.943 600.56C655.583 600.787 655.403 601.073 655.403 601.42C655.403 601.74 655.523 601.98 655.763 602.14C656.003 602.3 656.317 602.427 656.703 602.52C657.09 602.613 657.517 602.693 657.983 602.76C658.463 602.813 658.937 602.9 659.403 603.02C659.87 603.14 660.297 603.307 660.683 603.52C661.083 603.72 661.403 604.007 661.643 604.38C661.883 604.753 662.003 605.24 662.003 605.84C662.003 606.507 661.803 607.087 661.403 607.58C661.017 608.073 660.463 608.46 659.743 608.74C659.023 609.007 658.163 609.14 657.163 609.14Z" fill="white"/>
<g clip-path="url(#clip1_572_1529)">
<path d="M618.833 543.218C618.194 542.834 617.55 542.538 616.906 542.329C617.604 541.902 618.189 541.285 618.577 540.517C618.897 539.881 619.059 539.201 619.059 538.497C619.059 536.015 617.014 534 614.503 534C611.991 534 609.951 536.015 609.951 538.497C609.951 539.201 610.113 539.881 610.433 540.517C610.821 541.28 611.401 541.902 612.104 542.329C611.465 542.543 610.831 542.834 610.192 543.213C607.233 544.99 605.916 547.802 605.916 552.324C605.916 552.877 606.368 553.324 606.929 553.324C607.489 553.324 607.941 552.877 607.941 552.324C607.941 547.55 609.612 545.903 611.249 544.922C613.475 543.582 615.554 543.582 617.781 544.922C619.418 545.903 621.089 547.555 621.089 552.324C621.089 552.877 621.541 553.324 622.101 553.324C622.661 553.324 623.114 552.877 623.114 552.324C623.114 547.797 621.796 544.99 618.838 543.213L618.833 543.218ZM614.503 536.001C615.898 536.001 617.034 537.123 617.034 538.497C617.034 538.891 616.945 539.269 616.768 539.619C616.336 540.469 615.466 540.998 614.503 540.998C613.539 540.998 612.674 540.474 612.247 539.624C612.07 539.269 611.976 538.891 611.976 538.497C611.976 537.118 613.112 536.001 614.503 536.001Z" fill="white"/>
<path d="M618.833 577.89C618.194 577.506 617.55 577.21 616.906 576.996C617.604 576.569 618.189 575.952 618.577 575.189C618.897 574.553 619.059 573.873 619.059 573.169C619.059 570.687 617.014 568.672 614.503 568.672C611.991 568.672 609.951 570.687 609.951 573.169C609.951 573.873 610.113 574.553 610.433 575.189C610.821 575.952 611.401 576.573 612.104 577.001C611.465 577.215 610.831 577.506 610.192 577.885C607.233 579.662 605.916 582.474 605.916 586.996C605.916 587.549 606.368 587.996 606.929 587.996C607.489 587.996 607.941 587.549 607.941 586.996C607.941 582.222 609.612 580.575 611.249 579.594C613.475 578.254 615.554 578.254 617.781 579.594C619.418 580.575 621.089 582.227 621.089 586.996C621.089 587.549 621.541 587.996 622.101 587.996C622.661 587.996 623.114 587.549 623.114 586.996C623.114 582.469 621.796 579.662 618.838 577.885L618.833 577.89ZM614.503 570.673C615.898 570.673 617.034 571.795 617.034 573.169C617.034 573.562 616.945 573.941 616.768 574.291C616.336 575.141 615.466 575.67 614.503 575.67C613.539 575.67 612.674 575.146 612.247 574.296C612.07 573.941 611.976 573.562 611.976 573.169C611.976 571.79 613.112 570.673 614.503 570.673Z" fill="white"/>
<path d="M640.724 563.076C640.085 562.692 639.441 562.396 638.797 562.183C639.495 561.755 640.08 561.138 640.468 560.371C640.788 559.735 640.95 559.055 640.95 558.351C640.95 555.869 638.905 553.854 636.394 553.854C633.882 553.854 631.843 555.869 631.843 558.351C631.843 559.06 632.005 559.74 632.324 560.371C632.713 561.133 633.293 561.755 633.995 562.183C633.356 562.396 632.722 562.688 632.083 563.066C629.125 564.844 627.807 567.656 627.807 572.177C627.807 572.731 628.26 573.178 628.82 573.178C629.38 573.178 629.832 572.731 629.832 572.177C629.832 567.403 631.503 565.757 633.14 564.776C635.367 563.435 637.446 563.435 639.672 564.776C641.304 565.757 642.98 567.408 642.98 572.177C642.98 572.731 643.432 573.178 643.992 573.178C644.553 573.178 645.005 572.731 645.005 572.177C645.005 567.651 643.688 564.844 640.729 563.066L640.724 563.076ZM636.394 555.859C637.79 555.859 638.925 556.981 638.925 558.356C638.925 558.749 638.837 559.128 638.655 559.477C638.222 560.327 637.352 560.857 636.389 560.857C635.426 560.857 634.561 560.327 634.128 559.482C633.951 559.128 633.858 558.749 633.858 558.356C633.858 556.976 634.993 555.859 636.384 555.859H636.394Z" fill="white"/>
<path d="M596.917 563.076C596.283 562.692 595.644 562.401 595.005 562.192C595.708 561.765 596.292 561.143 596.676 560.381C596.995 559.749 597.157 559.07 597.157 558.36C597.157 555.879 595.118 553.863 592.606 553.863C590.095 553.863 588.05 555.879 588.05 558.36C588.05 559.07 588.212 559.749 588.532 560.386C588.92 561.148 589.5 561.765 590.203 562.192C589.559 562.406 588.915 562.697 588.276 563.086C585.322 564.854 584 567.666 584 572.192C584 572.746 584.452 573.192 585.012 573.192C585.573 573.192 586.025 572.746 586.025 572.192C586.025 567.418 587.696 565.772 589.333 564.791C591.564 563.45 593.638 563.455 595.865 564.791C597.501 565.772 599.173 567.423 599.173 572.192C599.173 572.746 599.625 573.192 600.185 573.192C600.745 573.192 601.198 572.746 601.198 572.192C601.198 567.666 599.875 564.859 596.917 563.081V563.076ZM592.611 555.859C594.007 555.859 595.137 556.981 595.137 558.356C595.137 558.749 595.049 559.128 594.867 559.482C594.439 560.332 593.574 560.857 592.611 560.857C591.648 560.857 590.778 560.327 590.345 559.482C590.168 559.128 590.075 558.749 590.075 558.356C590.075 556.976 591.21 555.859 592.606 555.859H592.611Z" fill="white"/>
<path d="M630.516 554.266C630.255 554.266 629.999 554.168 629.798 553.974L624.667 548.904C624.274 548.515 624.274 547.879 624.667 547.491C625.06 547.102 625.704 547.102 626.097 547.491L631.228 552.561C631.621 552.949 631.621 553.586 631.228 553.974C631.032 554.168 630.771 554.266 630.511 554.266H630.516Z" fill="white"/>
<path d="M598.484 554.266C598.224 554.266 597.968 554.168 597.767 553.974C597.374 553.586 597.374 552.949 597.767 552.561L602.898 547.491C603.291 547.102 603.935 547.102 604.328 547.491C604.722 547.879 604.722 548.515 604.328 548.904L599.197 553.974C599 554.168 598.74 554.266 598.479 554.266H598.484Z" fill="white"/>
<path d="M625.384 582.021C625.124 582.021 624.868 581.924 624.667 581.73C624.274 581.341 624.274 580.705 624.667 580.317L629.798 575.246C630.191 574.858 630.835 574.858 631.228 575.246C631.621 575.635 631.621 576.271 631.228 576.66L626.097 581.73C625.9 581.924 625.64 582.021 625.379 582.021H625.384Z" fill="white"/>
<path d="M603.616 582.021C603.355 582.021 603.1 581.924 602.898 581.73L597.767 576.66C597.374 576.271 597.374 575.635 597.767 575.246C598.16 574.858 598.804 574.858 599.197 575.246L604.328 580.317C604.722 580.705 604.722 581.341 604.328 581.73C604.132 581.924 603.871 582.021 603.611 582.021H603.616Z" fill="white"/>
</g>
<circle cx="80" cy="572" r="80" fill="#FF9734"/>
<path d="M46.4866 593V579H52.2466C53.4866 579 54.5466 579.2 55.4266 579.6C56.32 580 57.0066 580.573 57.4866 581.32C57.9666 582.067 58.2066 582.953 58.2066 583.98C58.2066 585.007 57.9666 585.893 57.4866 586.64C57.0066 587.387 56.32 587.96 55.4266 588.36C54.5466 588.76 53.4866 588.96 52.2466 588.96H47.9266L49.0866 587.74V593H46.4866ZM49.0866 588.02L47.9266 586.76H52.1266C53.2733 586.76 54.1333 586.52 54.7066 586.04C55.2933 585.547 55.5866 584.86 55.5866 583.98C55.5866 583.087 55.2933 582.4 54.7066 581.92C54.1333 581.44 53.2733 581.2 52.1266 581.2H47.9266L49.0866 579.92V588.02ZM60.1654 593V582.32H62.5454V585.26L62.2654 584.4C62.5854 583.68 63.0854 583.133 63.7654 582.76C64.4587 582.387 65.3187 582.2 66.3454 582.2V584.58C66.2387 584.553 66.1387 584.54 66.0454 584.54C65.9521 584.527 65.8587 584.52 65.7654 584.52C64.8187 584.52 64.0654 584.8 63.5054 585.36C62.9454 585.907 62.6654 586.727 62.6654 587.82V593H60.1654ZM72.8685 593.14C71.7752 593.14 70.8018 592.907 69.9485 592.44C69.0952 591.96 68.4218 591.307 67.9285 590.48C67.4352 589.653 67.1885 588.713 67.1885 587.66C67.1885 586.593 67.4352 585.653 67.9285 584.84C68.4218 584.013 69.0952 583.367 69.9485 582.9C70.8018 582.433 71.7752 582.2 72.8685 582.2C73.9752 582.2 74.9552 582.433 75.8085 582.9C76.6752 583.367 77.3485 584.007 77.8285 584.82C78.3218 585.633 78.5685 586.58 78.5685 587.66C78.5685 588.713 78.3218 589.653 77.8285 590.48C77.3485 591.307 76.6752 591.96 75.8085 592.44C74.9552 592.907 73.9752 593.14 72.8685 593.14ZM72.8685 591C73.4818 591 74.0285 590.867 74.5085 590.6C74.9885 590.333 75.3618 589.947 75.6285 589.44C75.9085 588.933 76.0485 588.34 76.0485 587.66C76.0485 586.967 75.9085 586.373 75.6285 585.88C75.3618 585.373 74.9885 584.987 74.5085 584.72C74.0285 584.453 73.4885 584.32 72.8885 584.32C72.2752 584.32 71.7285 584.453 71.2485 584.72C70.7818 584.987 70.4085 585.373 70.1285 585.88C69.8485 586.373 69.7085 586.967 69.7085 587.66C69.7085 588.34 69.8485 588.933 70.1285 589.44C70.4085 589.947 70.7818 590.333 71.2485 590.6C71.7285 590.867 72.2685 591 72.8685 591ZM79.5591 597.02C79.0925 597.02 78.6525 596.967 78.2391 596.86C77.8125 596.767 77.4525 596.613 77.1591 596.4L77.8791 594.54C78.2658 594.82 78.7525 594.96 79.3391 594.96C79.7925 594.96 80.1458 594.813 80.3991 594.52C80.6525 594.24 80.7791 593.82 80.7791 593.26V582.32H83.2791V593.2C83.2791 594.373 82.9525 595.3 82.2991 595.98C81.6591 596.673 80.7458 597.02 79.5591 597.02ZM82.0191 580.56C81.5525 580.56 81.1658 580.413 80.8591 580.12C80.5658 579.827 80.4191 579.473 80.4191 579.06C80.4191 578.633 80.5658 578.28 80.8591 578C81.1658 577.707 81.5525 577.56 82.0191 577.56C82.4858 577.56 82.8658 577.7 83.1591 577.98C83.4658 578.247 83.6191 578.587 83.6191 579C83.6191 579.44 83.4725 579.813 83.1791 580.12C82.8858 580.413 82.4991 580.56 82.0191 580.56ZM91.2776 593.14C90.0909 593.14 89.0509 592.907 88.1576 592.44C87.2776 591.96 86.5909 591.307 86.0976 590.48C85.6176 589.653 85.3776 588.713 85.3776 587.66C85.3776 586.593 85.6109 585.653 86.0776 584.84C86.5576 584.013 87.2109 583.367 88.0376 582.9C88.8776 582.433 89.8309 582.2 90.8976 582.2C91.9376 582.2 92.8642 582.427 93.6776 582.88C94.4909 583.333 95.1309 583.973 95.5976 584.8C96.0642 585.627 96.2976 586.6 96.2976 587.72C96.2976 587.827 96.2909 587.947 96.2776 588.08C96.2776 588.213 96.2709 588.34 96.2576 588.46H87.3576V586.8H94.9376L93.9576 587.32C93.9709 586.707 93.8442 586.167 93.5776 585.7C93.3109 585.233 92.9442 584.867 92.4776 584.6C92.0242 584.333 91.4976 584.2 90.8976 584.2C90.2842 584.2 89.7442 584.333 89.2776 584.6C88.8242 584.867 88.4642 585.24 88.1976 585.72C87.9442 586.187 87.8176 586.74 87.8176 587.38V587.78C87.8176 588.42 87.9642 588.987 88.2576 589.48C88.5509 589.973 88.9642 590.353 89.4976 590.62C90.0309 590.887 90.6442 591.02 91.3376 591.02C91.9376 591.02 92.4776 590.927 92.9576 590.74C93.4376 590.553 93.8642 590.26 94.2376 589.86L95.5776 591.4C95.0976 591.96 94.4909 592.393 93.7576 592.7C93.0376 592.993 92.2109 593.14 91.2776 593.14ZM103.299 593.14C102.179 593.14 101.179 592.907 100.299 592.44C99.4323 591.96 98.7523 591.307 98.259 590.48C97.7657 589.653 97.519 588.713 97.519 587.66C97.519 586.593 97.7657 585.653 98.259 584.84C98.7523 584.013 99.4323 583.367 100.299 582.9C101.179 582.433 102.179 582.2 103.299 582.2C104.339 582.2 105.252 582.413 106.039 582.84C106.839 583.253 107.446 583.867 107.859 584.68L105.939 585.8C105.619 585.293 105.226 584.92 104.759 584.68C104.306 584.44 103.812 584.32 103.279 584.32C102.666 584.32 102.112 584.453 101.619 584.72C101.126 584.987 100.739 585.373 100.459 585.88C100.179 586.373 100.039 586.967 100.039 587.66C100.039 588.353 100.179 588.953 100.459 589.46C100.739 589.953 101.126 590.333 101.619 590.6C102.112 590.867 102.666 591 103.279 591C103.812 591 104.306 590.88 104.759 590.64C105.226 590.4 105.619 590.027 105.939 589.52L107.859 590.64C107.446 591.44 106.839 592.06 106.039 592.5C105.252 592.927 104.339 593.14 103.299 593.14ZM113.877 593.14C112.703 593.14 111.797 592.84 111.157 592.24C110.517 591.627 110.197 590.727 110.197 589.54V579.96H112.697V589.48C112.697 589.987 112.823 590.38 113.077 590.66C113.343 590.94 113.71 591.08 114.177 591.08C114.737 591.08 115.203 590.933 115.577 590.64L116.277 592.42C115.983 592.66 115.623 592.84 115.197 592.96C114.77 593.08 114.33 593.14 113.877 593.14ZM108.437 584.4V582.4H115.557V584.4H108.437ZM42.9382 620V606H48.6982C49.9382 606 50.9982 606.2 51.8782 606.6C52.7715 607 53.4582 607.573 53.9382 608.32C54.4182 609.067 54.6582 609.953 54.6582 610.98C54.6582 612.007 54.4182 612.893 53.9382 613.64C53.4582 614.387 52.7715 614.96 51.8782 615.36C50.9982 615.76 49.9382 615.96 48.6982 615.96H44.3782L45.5382 614.74V620H42.9382ZM45.5382 615.02L44.3782 613.76H48.5782C49.7249 613.76 50.5849 613.52 51.1582 613.04C51.7449 612.547 52.0382 611.86 52.0382 610.98C52.0382 610.087 51.7449 609.4 51.1582 608.92C50.5849 608.44 49.7249 608.2 48.5782 608.2H44.3782L45.5382 606.92V615.02ZM56.9099 620V605.16H59.4099V620H56.9099ZM68.9712 620V617.84L68.8312 617.38V613.6C68.8312 612.867 68.6112 612.3 68.1712 611.9C67.7312 611.487 67.0645 611.28 66.1712 611.28C65.5712 611.28 64.9778 611.373 64.3912 611.56C63.8178 611.747 63.3312 612.007 62.9312 612.34L61.9512 610.52C62.5245 610.08 63.2045 609.753 63.9912 609.54C64.7912 609.313 65.6178 609.2 66.4712 609.2C68.0178 609.2 69.2112 609.573 70.0512 610.32C70.9045 611.053 71.3312 612.193 71.3312 613.74V620H68.9712ZM65.6112 620.14C64.8112 620.14 64.1112 620.007 63.5112 619.74C62.9112 619.46 62.4445 619.08 62.1112 618.6C61.7912 618.107 61.6312 617.553 61.6312 616.94C61.6312 616.34 61.7712 615.8 62.0512 615.32C62.3445 614.84 62.8178 614.46 63.4712 614.18C64.1245 613.9 64.9912 613.76 66.0712 613.76H69.1712V615.42H66.2512C65.3978 615.42 64.8245 615.56 64.5312 615.84C64.2378 616.107 64.0912 616.44 64.0912 616.84C64.0912 617.293 64.2712 617.653 64.6312 617.92C64.9912 618.187 65.4912 618.32 66.1312 618.32C66.7445 618.32 67.2912 618.18 67.7712 617.9C68.2645 617.62 68.6178 617.207 68.8312 616.66L69.2512 618.16C69.0112 618.787 68.5778 619.273 67.9512 619.62C67.3378 619.967 66.5578 620.14 65.6112 620.14ZM80.2996 609.2C81.1529 609.2 81.9129 609.367 82.5796 609.7C83.2596 610.033 83.7929 610.547 84.1796 611.24C84.5663 611.92 84.7596 612.8 84.7596 613.88V620H82.2596V614.2C82.2596 613.253 82.0329 612.547 81.5796 612.08C81.1396 611.613 80.5196 611.38 79.7196 611.38C79.1329 611.38 78.6129 611.5 78.1596 611.74C77.7063 611.98 77.3529 612.34 77.0996 612.82C76.8596 613.287 76.7396 613.88 76.7396 614.6V620H74.2396V609.32H76.6196V612.2L76.1996 611.32C76.5729 610.64 77.1129 610.12 77.8196 609.76C78.5396 609.387 79.3663 609.2 80.2996 609.2ZM93.691 609.2C94.5443 609.2 95.3043 609.367 95.971 609.7C96.651 610.033 97.1843 610.547 97.571 611.24C97.9577 611.92 98.151 612.8 98.151 613.88V620H95.651V614.2C95.651 613.253 95.4243 612.547 94.971 612.08C94.531 611.613 93.911 611.38 93.111 611.38C92.5243 611.38 92.0043 611.5 91.551 611.74C91.0977 611.98 90.7443 612.34 90.491 612.82C90.251 613.287 90.131 613.88 90.131 614.6V620H87.631V609.32H90.011V612.2L89.591 611.32C89.9643 610.64 90.5043 610.12 91.211 609.76C91.931 609.387 92.7577 609.2 93.691 609.2ZM106.062 620.14C104.875 620.14 103.835 619.907 102.942 619.44C102.062 618.96 101.375 618.307 100.882 617.48C100.402 616.653 100.162 615.713 100.162 614.66C100.162 613.593 100.395 612.653 100.862 611.84C101.342 611.013 101.995 610.367 102.822 609.9C103.662 609.433 104.615 609.2 105.682 609.2C106.722 609.2 107.649 609.427 108.462 609.88C109.275 610.333 109.915 610.973 110.382 611.8C110.849 612.627 111.082 613.6 111.082 614.72C111.082 614.827 111.075 614.947 111.062 615.08C111.062 615.213 111.055 615.34 111.042 615.46H102.142V613.8H109.722L108.742 614.32C108.755 613.707 108.629 613.167 108.362 612.7C108.095 612.233 107.729 611.867 107.262 611.6C106.809 611.333 106.282 611.2 105.682 611.2C105.069 611.2 104.529 611.333 104.062 611.6C103.609 611.867 103.249 612.24 102.982 612.72C102.729 613.187 102.602 613.74 102.602 614.38V614.78C102.602 615.42 102.749 615.987 103.042 616.48C103.335 616.973 103.749 617.353 104.282 617.62C104.815 617.887 105.429 618.02 106.122 618.02C106.722 618.02 107.262 617.927 107.742 617.74C108.222 617.553 108.649 617.26 109.022 616.86L110.362 618.4C109.882 618.96 109.275 619.393 108.542 619.7C107.822 619.993 106.995 620.14 106.062 620.14ZM113.183 620V609.32H115.563V612.26L115.283 611.4C115.603 610.68 116.103 610.133 116.783 609.76C117.477 609.387 118.337 609.2 119.363 609.2V611.58C119.257 611.553 119.157 611.54 119.063 611.54C118.97 611.527 118.877 611.52 118.783 611.52C117.837 611.52 117.083 611.8 116.523 612.36C115.963 612.907 115.683 613.727 115.683 614.82V620H113.183Z" fill="white"/>
<path d="M100.302 520.209H59.6975C57.6554 520.209 56 521.857 56 523.89V564.318C56 566.352 57.6554 568 59.6975 568H100.302C102.345 568 104 566.352 104 564.318V523.89C104 521.857 102.345 520.209 100.302 520.209Z" fill="white"/>
<path d="M69.9843 547.849C72.0607 545.781 72.0607 542.43 69.9843 540.362C67.9078 538.295 64.5412 538.295 62.4648 540.362C60.3884 542.43 60.3884 545.781 62.4648 547.849C64.5412 549.916 67.9078 549.916 69.9843 547.849Z" fill="#FF9734"/>
<path d="M83.6224 547.847C85.6989 545.779 85.6989 542.428 83.6224 540.36C81.546 538.293 78.1794 538.293 76.103 540.36C74.0265 542.428 74.0266 545.779 76.103 547.847C78.1794 549.914 81.546 549.914 83.6224 547.847Z" fill="#FF9734"/>
<path d="M97.2609 547.847C99.3373 545.779 99.3373 542.428 97.2609 540.36C95.1844 538.293 91.8179 538.293 89.7414 540.36C87.665 542.428 87.665 545.779 89.7414 547.847C91.8179 549.914 95.1844 549.914 97.2609 547.847Z" fill="#FF9734"/>
<path d="M66.2248 562.338C69.1613 562.338 71.5418 559.968 71.5418 557.044C71.5418 554.12 69.1613 551.75 66.2248 551.75C63.2882 551.75 60.9077 554.12 60.9077 557.044C60.9077 559.968 63.2882 562.338 66.2248 562.338Z" fill="#FF9734"/>
<path d="M79.863 562.338C82.7995 562.338 85.18 559.968 85.18 557.044C85.18 554.12 82.7995 551.75 79.863 551.75C76.9264 551.75 74.5459 554.12 74.5459 557.044C74.5459 559.968 76.9264 562.338 79.863 562.338Z" fill="#FF9734"/>
<path d="M93.5011 562.338C96.4377 562.338 98.8182 559.968 98.8182 557.044C98.8182 554.12 96.4377 551.75 93.5011 551.75C90.5646 551.75 88.1841 554.12 88.1841 557.044C88.1841 559.968 90.5646 562.338 93.5011 562.338Z" fill="#FF9734"/>
<path d="M69.9845 534.907C72.061 532.84 72.061 529.488 69.9845 527.421C67.9081 525.353 64.5415 525.353 62.4651 527.421C60.3886 529.488 60.3886 532.84 62.4651 534.907C64.5415 536.975 67.9081 536.975 69.9845 534.907Z" fill="#FF9734"/>
<path d="M83.6227 534.907C85.6991 532.84 85.6991 529.488 83.6227 527.421C81.5463 525.353 78.1797 525.353 76.1032 527.421C74.0268 529.488 74.0268 532.84 76.1032 534.907C78.1797 536.975 81.5463 536.975 83.6227 534.907Z" fill="#FF9734"/>
<path d="M97.2609 534.907C99.3373 532.84 99.3373 529.488 97.2609 527.421C95.1844 525.353 91.8179 525.353 89.7414 527.421C87.665 529.488 87.665 532.84 89.7414 534.907C91.8179 536.975 95.1844 536.975 97.2609 534.907Z" fill="#FF9734"/>
<path d="M96.2559 541.834C95.9949 541.574 95.5718 541.574 95.311 541.834L92.1649 544.966L91.6915 544.495C91.4304 544.235 91.0073 544.235 90.7466 544.495C90.4855 544.755 90.4855 545.176 90.7466 545.435L91.6915 546.376C91.7733 546.458 91.8711 546.514 91.9745 546.544C92.2018 546.611 92.4584 546.555 92.638 546.377L96.2562 542.774C96.5173 542.514 96.5173 542.093 96.2562 541.833L96.2559 541.834Z" fill="white"/>
<path d="M68.3979 516.281C68.3979 515.573 67.822 515 67.1116 515C66.4013 515 65.8254 515.573 65.8254 516.281V522.759C65.8254 523.467 66.4013 524.04 67.1116 524.04C67.822 524.04 68.3979 523.467 68.3979 522.759V516.281Z" fill="#F7F7F7"/>
<path d="M94.1745 516.281C94.1745 515.573 93.5986 515 92.8883 515C92.1779 515 91.6021 515.573 91.6021 516.281V522.759C91.6021 523.467 92.1779 524.04 92.8883 524.04C93.5986 524.04 94.1745 523.467 94.1745 522.759V516.281Z" fill="#F7F7F7"/>
<path d="M267.497 327.09C267.547 326.263 266.917 325.552 266.09 325.503L252.614 324.696C251.787 324.647 251.076 325.277 251.027 326.104C250.977 326.931 251.608 327.642 252.435 327.691L264.413 328.408L263.696 340.386C263.647 341.213 264.277 341.924 265.104 341.973C265.931 342.023 266.642 341.392 266.691 340.565L267.497 327.09ZM80.9954 493.122L266.995 328.122L265.005 325.878L79.0046 490.878L80.9954 493.122Z" fill="black"/>
<path d="M424.895 325.504C424.068 325.562 423.445 326.279 423.504 327.105L424.452 340.572C424.51 341.398 425.227 342.021 426.054 341.963C426.88 341.905 427.503 341.188 427.445 340.361L426.602 328.391L438.572 327.548C439.398 327.49 440.021 326.773 439.963 325.946C439.905 325.12 439.188 324.497 438.361 324.555L424.895 325.504ZM615.984 490.867L425.984 325.867L424.016 328.133L614.016 493.133L615.984 490.867Z" fill="black"/>
<path d="M424.504 326.895C424.446 327.722 425.069 328.438 425.895 328.496L439.362 329.439C440.189 329.497 440.905 328.874 440.963 328.048C441.021 327.221 440.398 326.505 439.572 326.447L427.601 325.608L428.439 313.638C428.497 312.811 427.874 312.095 427.048 312.037C426.221 311.979 425.505 312.602 425.447 313.428L424.504 326.895ZM616.016 159.868L425.016 325.868L426.984 328.132L617.984 162.132L616.016 159.868Z" fill="black"/>
<path d="M266.085 328.498C266.912 328.451 267.545 327.742 267.498 326.915L266.732 313.437C266.685 312.61 265.976 311.977 265.149 312.024C264.322 312.071 263.69 312.78 263.737 313.607L264.417 325.587L252.437 326.268C251.61 326.315 250.977 327.024 251.024 327.851C251.071 328.678 251.78 329.31 252.607 329.263L266.085 328.498ZM79.0012 162.119L265.001 328.119L266.999 325.881L80.9988 159.881L79.0012 162.119Z" fill="black"/>
<path d="M534.055 83.1216C534.644 82.539 534.649 81.5893 534.066 81.0003L524.573 71.4019C523.99 70.8129 523.041 70.8077 522.452 71.3902C521.863 71.9728 521.857 72.9225 522.44 73.5115L530.878 82.0434L522.347 90.4818C521.758 91.0644 521.752 92.0141 522.335 92.6031C522.917 93.1921 523.867 93.1973 524.456 92.6148L534.055 83.1216ZM159.992 81.5L532.991 83.5551L533.008 80.5551L160.008 78.5L159.992 81.5Z" fill="black"/>
<path d="M158.942 571.889C158.355 572.473 158.352 573.422 158.936 574.01L168.456 583.583C169.04 584.17 169.989 584.173 170.577 583.589C171.164 583.004 171.167 582.055 170.583 581.467L162.121 572.958L170.631 564.497C171.218 563.913 171.221 562.963 170.636 562.375C170.052 561.788 169.103 561.785 168.515 562.37L158.942 571.889ZM533.004 572.5L160.004 571.452L159.996 574.452L532.996 575.5L533.004 572.5Z" fill="black"/>
<path d="M617.064 159.943C616.48 159.355 615.53 159.352 614.943 159.936L605.368 169.453C604.78 170.037 604.778 170.987 605.362 171.575C605.946 172.162 606.895 172.165 607.483 171.581L615.994 163.121L624.453 171.632C625.037 172.22 625.987 172.222 626.575 171.638C627.162 171.054 627.165 170.105 626.581 169.517L617.064 159.943ZM616.5 494.005L617.5 161.005L614.5 160.996L613.5 493.995L616.5 494.005Z" fill="black"/>
<defs>
<clipPath id="clip0_572_1529">
<rect width="75" height="46" fill="white" transform="translate(309 276)"/>
</clipPath>
<clipPath id="clip1_572_1529">
<rect width="61" height="54" fill="white" transform="translate(584 534)"/>
</clipPath>
</defs>
</svg>
