<svg width="108" height="114" viewBox="0 0 108 114" fill="none" xmlns="http://www.w3.org/2000/svg">
<g clip-path="url(#clip0_452_1507)">
<path d="M66.6684 54.438L67.3771 53.7304L66.6684 53.0227L61.0663 47.4291L60.3598 46.7236L59.6532 47.4291L2.69131 104.305C0.753612 106.24 0.753612 109.379 2.69131 111.314C4.62818 113.248 7.76966 113.248 9.70653 111.314L66.6684 54.438Z" fill="#FF9734" stroke="#FF9734" stroke-width="2"/>
<path d="M63.2934 43.5388L62.5847 44.2464L63.2934 44.9541L68.8955 50.5477L69.6021 51.2532L70.3086 50.5477L83.4167 37.4594C85.3544 35.5246 85.3544 32.3853 83.4167 30.4505C81.4798 28.5165 78.3383 28.5165 76.4015 30.4505L63.2934 43.5388ZM80.5166 33.3504C80.8498 33.6831 80.8498 34.2268 80.5166 34.5595L69.6021 45.4576L68.3891 44.2464L79.3015 33.3504C79.6355 33.0169 80.1826 33.0169 80.5166 33.3504Z" fill="white" stroke="#FF9734" stroke-width="2"/>
<path d="M97.8109 41.8555L100.961 48.2248L108 49.2455L102.905 54.2038L104.109 61.2036L97.8109 57.8988L91.5154 61.2036L92.7188 54.2038L87.6243 49.2455L94.6632 48.2248L97.8109 41.8555Z" fill="#FF9734"/>
<path d="M59.5925 20.9336L61.4797 24.7523L65.6974 25.3638L62.6449 28.3355L63.3669 32.5325L59.5925 30.5506L55.8181 32.5325L56.5401 28.3355L53.4853 25.3638L57.7053 24.7523L59.5925 20.9336Z" fill="#FF9734"/>
<path d="M63.6743 71.7617L66.3503 77.1793L72.3384 78.0501L68.0063 82.2662L69.0286 88.2215L63.6743 85.4092L58.3177 88.2215L59.3399 82.2662L55.0079 78.0501L60.996 77.1793L63.6743 71.7617Z" fill="#FF9734"/>
<path d="M87.6243 0L90.3026 5.41758L96.2907 6.28601L91.9563 10.5044L92.9809 16.4574L87.6243 13.6475L82.2677 16.4574L83.2923 10.5044L78.9579 6.28601L84.946 5.41758L87.6243 0Z" fill="#FF9734"/>
</g>
<defs>
<clipPath id="clip0_452_1507">
<rect width="108" height="114" fill="white"/>
</clipPath>
</defs>
</svg>
