<svg width="63" height="107" viewBox="0 0 63 107" fill="none" xmlns="http://www.w3.org/2000/svg">
<path d="M50.8846 0H12.1154C5.42769 0 0 5.44727 0 12.1591V94.8409C0 101.553 5.42769 107 12.1154 107H50.8846C57.5723 107 63 101.553 63 94.8409V12.1591C63 5.44727 57.5723 0 50.8846 0ZM31.5 102.136C27.4777 102.136 24.2308 98.8777 24.2308 94.8409C24.2308 90.8041 27.4777 87.5455 31.5 87.5455C35.5223 87.5455 38.7692 90.8041 38.7692 94.8409C38.7692 98.8777 35.5223 102.136 31.5 102.136ZM53.3077 82.6818H9.69231V14.5909H53.3077V82.6818Z" fill="#FF9734"/>
</svg>
