<svg width="48" height="53" viewBox="0 0 48 53" fill="none" xmlns="http://www.w3.org/2000/svg">
<g clip-path="url(#clip0_451_1410)">
<path d="M44.3025 5.20898H3.69752C1.65544 5.20898 0 6.85721 0 8.89039V49.3183C0 51.3515 1.65544 52.9997 3.69752 52.9997H44.3025C46.3446 52.9997 48 51.3515 48 49.3183V8.89039C48 6.85721 46.3446 5.20898 44.3025 5.20898Z" fill="white"/>
<path d="M13.9843 32.8488C16.0607 30.7814 16.0607 27.4295 13.9843 25.3621C11.9078 23.2947 8.54125 23.2947 6.46481 25.3621C4.38837 27.4295 4.38837 30.7814 6.46481 32.8488C8.54125 34.9162 11.9078 34.9162 13.9843 32.8488Z" fill="#FF9734"/>
<path d="M27.6226 32.8469C29.699 30.7795 29.699 27.4276 27.6226 25.3602C25.5461 23.2928 22.1796 23.2928 20.1031 25.3602C18.0267 27.4276 18.0267 30.7795 20.1031 32.8469C22.1796 34.9142 25.5461 34.9142 27.6226 32.8469Z" fill="#FF9734"/>
<path d="M41.2608 32.8469C43.3372 30.7795 43.3372 27.4276 41.2608 25.3602C39.1843 23.2928 35.8177 23.2928 33.7413 25.3602C31.6649 27.4276 31.6649 30.7795 33.7413 32.8469C35.8177 34.9142 39.1843 34.9142 41.2608 32.8469Z" fill="#FF9734"/>
<path d="M10.2247 47.3378C13.1612 47.3378 15.5417 44.9676 15.5417 42.0439C15.5417 39.1202 13.1612 36.75 10.2247 36.75C7.28812 36.75 4.90759 39.1202 4.90759 42.0439C4.90759 44.9676 7.28812 47.3378 10.2247 47.3378Z" fill="#FF9734"/>
<path d="M23.863 47.3378C26.7995 47.3378 29.18 44.9676 29.18 42.0439C29.18 39.1202 26.7995 36.75 23.863 36.75C20.9264 36.75 18.5459 39.1202 18.5459 42.0439C18.5459 44.9676 20.9264 47.3378 23.863 47.3378Z" fill="#FF9734"/>
<path d="M37.5011 47.3378C40.4377 47.3378 42.8182 44.9676 42.8182 42.0439C42.8182 39.1202 40.4377 36.75 37.5011 36.75C34.5646 36.75 32.1841 39.1202 32.1841 42.0439C32.1841 44.9676 34.5646 47.3378 37.5011 47.3378Z" fill="#FF9734"/>
<path d="M13.9844 19.9074C16.0608 17.84 16.0608 14.4881 13.9844 12.4207C11.9079 10.3533 8.54137 10.3533 6.46493 12.4207C4.38849 14.4881 4.38849 17.84 6.46493 19.9074C8.54137 21.9748 11.9079 21.9748 13.9844 19.9074Z" fill="#FF9734"/>
<path d="M27.6227 19.9074C29.6991 17.84 29.6991 14.4881 27.6227 12.4207C25.5463 10.3533 22.1797 10.3533 20.1032 12.4207C18.0268 14.4881 18.0268 17.84 20.1032 19.9074C22.1797 21.9748 25.5463 21.9748 27.6227 19.9074Z" fill="#FF9734"/>
<path d="M41.261 19.9074C43.3374 17.84 43.3374 14.4881 41.261 12.4207C39.1846 10.3533 35.818 10.3533 33.7415 12.4207C31.6651 14.4881 31.6651 17.84 33.7415 19.9074C35.818 21.9748 39.1846 21.9748 41.261 19.9074Z" fill="#FF9734"/>
<path d="M40.2561 26.8336C39.995 26.5737 39.5719 26.5737 39.3111 26.8336L36.165 29.966L35.6916 29.4947C35.4306 29.2347 35.0074 29.2347 34.7467 29.4947C34.4856 29.7546 34.4856 30.1759 34.7467 30.4355L35.6916 31.3763C35.7734 31.4577 35.8712 31.5135 35.9746 31.5439C36.202 31.6111 36.4586 31.5553 36.6381 31.3766L40.2564 27.7741C40.5174 27.5142 40.5174 27.0929 40.2564 26.8333L40.2561 26.8336Z" fill="white"/>
<path d="M12.3979 1.2806C12.3979 0.573344 11.822 0 11.1116 0C10.4013 0 9.82544 0.573344 9.82544 1.2806V7.75935C9.82544 8.46661 10.4013 9.03995 11.1116 9.03995C11.822 9.03995 12.3979 8.46661 12.3979 7.75935V1.2806Z" fill="#F7F4FE"/>
<path d="M38.1745 1.2806C38.1745 0.573344 37.5986 0 36.8883 0C36.1779 0 35.6021 0.573344 35.6021 1.2806V7.75935C35.6021 8.46661 36.1779 9.03995 36.8883 9.03995C37.5986 9.03995 38.1745 8.46661 38.1745 7.75935V1.2806Z" fill="#F7F4FE"/>
</g>
<defs>
<clipPath id="clip0_451_1410">
<rect width="48" height="53" fill="white"/>
</clipPath>
</defs>
</svg>
