<svg width="138" height="107" viewBox="0 0 138 107" fill="none" xmlns="http://www.w3.org/2000/svg">
<g clip-path="url(#clip0_452_1476)">
<path d="M82.2657 55.3419C83.3449 52.1871 84.0478 48.8761 84.3351 45.4632L77.4735 42.1641C77.4821 41.0604 77.441 39.9483 77.3418 38.8293C77.3145 38.4422 77.2615 38.0636 77.217 37.6798L83.6716 33.6302C83.0011 30.2665 81.9339 27.0523 80.5144 24.0486L72.89 24.5988C72.146 23.288 71.3149 22.0281 70.4118 20.8344L73.9606 14.1343C71.7185 11.6026 69.1736 9.34435 66.391 7.40869L60.0698 11.6638C58.7752 10.9065 57.4292 10.2256 56.0336 9.62961L55.7343 2.06692C52.5583 0.995512 49.2199 0.295954 45.7874 0.00390625L42.4626 6.82289C41.3509 6.8127 40.2375 6.85685 39.1053 6.95194C38.7137 6.9859 38.3289 7.03514 37.9458 7.08098L33.8736 0.661015C30.4804 1.3334 27.2446 2.39293 24.2157 3.80053L24.7716 11.37C23.4529 12.1103 22.1822 12.9321 20.9833 13.832L14.2294 10.3071C11.676 12.5365 9.40136 15.0614 7.45849 17.8273L11.7478 24.0996C10.9799 25.3866 10.289 26.7212 9.69381 28.1034L2.07285 28.4005C0.991957 31.5553 0.292456 34.8629 0 38.2792L6.86503 41.5783C6.85818 42.6837 6.8941 43.7942 6.99159 44.9131C7.02579 45.3002 7.07539 45.6772 7.1267 46.0626L0.663585 50.1105C1.34256 53.4742 2.40635 56.6884 3.82416 59.6921L11.4451 59.1437C12.1925 60.4545 13.0203 61.7093 13.9233 62.9063L10.3728 69.6048C12.615 72.1449 15.165 74.4015 17.9459 76.3321L24.2636 72.077C25.5617 72.8428 26.9094 73.5253 28.2998 74.1162L28.6009 81.6806C31.7768 82.7486 35.1067 83.4499 38.5427 83.7385L41.876 76.9229C42.9842 76.9297 44.1062 76.8924 45.2332 76.7956C45.6198 76.765 46.0046 76.7107 46.3842 76.6632L50.4598 83.0831C53.8564 82.409 57.0888 81.3529 60.1194 79.947L59.5687 72.3758C60.8822 71.6304 62.1495 70.8103 63.357 69.9138L70.1074 73.437C72.6574 71.2076 74.9304 68.6845 76.8767 65.9185L72.5958 59.6446C73.3569 58.3558 74.0427 57.0178 74.6465 55.6357L82.264 55.3402L82.2657 55.3419ZM42.1701 66.5756C28.4469 66.5756 17.2857 55.4931 17.2857 41.8704C17.2857 28.2477 28.4469 17.1668 42.1701 17.1668C55.8933 17.1668 67.0529 28.2494 67.0529 41.8721C67.0529 55.4948 55.8899 66.5773 42.1701 66.5773V66.5756Z" fill="#FF9734"/>
<path d="M19.0627 41.8707C19.0627 54.5188 29.4252 64.8101 42.1701 64.8101C54.9151 64.8101 65.2742 54.5188 65.2742 41.8707C65.2742 29.2227 54.9117 18.9297 42.1701 18.9297C29.4286 18.9297 19.0627 29.2227 19.0627 41.8707ZM59.5567 40.363C60.3914 49.9021 53.2869 58.3069 43.6837 59.1355C34.0806 59.9692 25.6113 52.9075 24.7733 43.3768C23.9421 33.8411 31.0465 25.4346 40.6497 24.6076C50.258 23.774 58.7256 30.834 59.5567 40.3647V40.363Z" fill="#FF9734"/>
<path d="M86.2233 74.8389C85.9958 85.6786 94.6925 94.6829 105.609 94.9087C116.528 95.1362 125.595 86.5004 125.825 75.6641C126.055 64.8243 117.36 55.8201 106.437 55.5942C95.5186 55.3667 86.4507 64.0008 86.2233 74.8389ZM116.456 68.8179C119.852 74.5196 117.951 81.8786 112.207 85.2524C106.389 88.667 98.8724 86.6855 95.5306 80.8207C92.3974 75.3126 94.2752 68.0589 99.6951 64.7292C105.466 61.1822 113.015 63.055 116.456 68.8179Z" fill="#FF9734"/>
<path d="M137.848 78.3685C138.072 76.0814 138.051 73.7772 137.778 71.4714L132.39 70.1929C132.106 68.7904 131.708 67.3929 131.203 66.021L135.152 62.153C134.679 61.1122 134.142 60.0866 133.543 59.0848C132.951 58.0864 132.305 57.1322 131.612 56.2153L126.297 57.7927C125.33 56.6856 124.29 55.6703 123.181 54.7534L124.651 49.449C122.75 48.0991 120.723 46.9699 118.597 46.0632L114.78 50.0704C113.405 49.5984 111.994 49.2384 110.564 48.9905L109.153 43.6521C106.854 43.4314 104.53 43.4552 102.219 43.737L100.92 49.0839C99.5052 49.3556 98.1062 49.7512 96.7278 50.2606L92.8283 46.3434C91.7885 46.8103 90.7469 47.335 89.7396 47.9327C88.7322 48.5219 87.7694 49.1654 86.8492 49.8446L88.4312 55.1303C87.3213 56.0914 86.2968 57.122 85.3733 58.2223L80.0304 56.7654C78.669 58.6468 77.5334 60.6605 76.6218 62.766L80.6546 66.5592C80.1792 67.9261 79.8269 69.3269 79.5755 70.7464L74.2052 72.1455C73.9777 74.4276 74.0017 76.7368 74.277 79.0375L79.6729 80.311C79.9483 81.7203 80.3434 83.1109 80.8479 84.4879L76.9023 88.3542C77.3743 89.395 77.9045 90.4172 78.5048 91.4122C79.1034 92.4174 79.7482 93.3767 80.4357 94.2868L85.7581 92.7145C86.721 93.8165 87.7694 94.8319 88.8725 95.7471L87.4085 101.058C89.3069 102.405 91.3301 103.541 93.4475 104.434L97.2733 100.433C98.6518 100.911 100.051 101.265 101.493 101.508L102.898 106.845C105.194 107.061 107.523 107.047 109.84 106.772L111.123 101.418C112.541 101.147 113.943 100.751 115.324 100.243L119.237 104.162C120.276 103.699 121.306 103.167 122.313 102.573C123.324 101.98 124.278 101.338 125.202 100.652L123.62 95.3752C124.732 94.4159 125.754 93.3801 126.676 92.2833L132.023 93.7384C133.382 91.8537 134.525 89.8399 135.424 87.7361L131.392 83.9378C131.864 82.5794 132.231 81.182 132.478 79.7574L137.848 78.3634V78.3685ZM105.589 95.7607C94.2 95.5246 85.127 86.1316 85.3664 74.8215C85.6025 63.5148 95.062 54.5055 106.456 54.7432C117.846 54.9792 126.916 64.3723 126.681 75.6824C126.442 86.9907 116.982 95.9984 105.589 95.7607Z" fill="#FF9734"/>
<path d="M17.2857 41.8696C17.2857 55.4922 28.4469 66.5748 42.1701 66.5748C55.8933 66.5748 67.0529 55.4922 67.0529 41.8696C67.0529 28.2469 55.8899 17.166 42.1701 17.166C28.4503 17.166 17.2857 28.2486 17.2857 41.8696ZM65.2742 41.8696C65.2742 54.5176 54.9117 64.8089 42.1701 64.8089C29.4286 64.8089 19.0627 54.5176 19.0627 41.8696C19.0627 29.2215 29.4252 18.9302 42.1701 18.9302C54.9151 18.9302 65.2742 29.2215 65.2742 41.8713V41.8696Z" fill="#FF9734"/>
<path d="M85.3664 74.8212C85.127 86.1313 94.2 95.5243 105.589 95.7604C116.982 95.9981 126.442 86.9904 126.681 75.6821C126.916 64.372 117.846 54.9789 106.456 54.7429C95.062 54.5052 85.6025 63.5128 85.3664 74.8212ZM125.823 75.6651C125.595 86.5014 116.526 95.1389 105.607 94.9097C94.6908 94.6839 85.9941 85.6796 86.2216 74.8399C86.449 64.0001 95.5169 55.3677 106.435 55.5953C117.357 55.8228 126.054 64.827 125.823 75.6651Z" fill="#FF9734"/>
</g>
<defs>
<clipPath id="clip0_452_1476">
<rect width="138" height="107" fill="white"/>
</clipPath>
</defs>
</svg>
