<svg width="72" height="73" viewBox="0 0 72 73" fill="none" xmlns="http://www.w3.org/2000/svg">
<path d="M6.44773 70.498H65.4686C68.6206 70.498 70.6701 67.1819 69.2608 64.3622C69.2608 64.3621 69.2608 64.362 69.2607 64.362L39.7505 5.34152C38.1878 2.21695 33.7287 2.21689 32.1659 5.34132L6.44773 70.498ZM6.44773 70.498C3.29667 70.498 1.24635 67.1816 2.65546 64.3622C2.6555 64.3621 2.65553 64.362 2.65557 64.362L32.1658 5.34152L6.44773 70.498Z" fill="#FF9734" stroke="white" stroke-width="4"/>
<path d="M35.958 6.23212C36.242 6.23212 36.6283 6.32841 36.8592 6.78887L66.3696 65.8097C66.5363 66.1431 66.5215 66.4727 66.3252 66.7899C66.1289 67.1072 65.84 67.2677 65.4685 67.2677H6.44759C6.07478 67.2677 5.78714 67.1072 5.59086 66.7899C5.39458 66.4727 5.37976 66.1431 5.54642 65.8097L35.0568 6.78887C35.2865 6.32841 35.6741 6.23212 35.958 6.23212ZM35.958 5.27539C35.5926 5.27539 34.6914 5.38156 34.2013 6.36174L4.69092 65.3814C4.26502 66.2332 4.5613 66.9442 4.77733 67.2924C4.99213 67.6405 5.49457 68.2232 6.44759 68.2232H65.4685C66.4215 68.2232 66.9239 67.6393 67.1399 67.2924C67.3547 66.9455 67.6523 66.2332 67.2264 65.3814L37.7147 6.36051C37.2246 5.38032 36.3234 5.27539 35.958 5.27539Z" fill="white"/>
<path d="M37.8716 53.0019H34.0459L31.3448 22.3125H40.5714L37.8716 53.0019Z" fill="white"/>
<path d="M35.9501 62.2832C34.1558 62.2832 32.7001 60.8602 32.7001 59.1064V58.9588C32.7001 57.205 34.1546 55.7832 35.9501 55.7832C37.7443 55.7832 39.2001 57.205 39.2001 58.9588V59.1064C39.2001 60.8602 37.7456 62.2832 35.9501 62.2832Z" fill="white"/>
</svg>
